<svg width="16" height="16" viewBox="0 0 16 16" fill="none" xmlns="http://www.w3.org/2000/svg">
<circle cx="7.98442" cy="7.98442" r="7.98442" fill="#E24C4B"/>
<path d="M11.6275 11.6275C11.3281 11.9269 10.829 11.9269 10.5296 11.6275L7.98462 9.08248L5.4396 11.6275C5.1402 11.9269 4.64114 11.9269 4.34174 11.6275C4.04234 11.3281 4.04234 10.829 4.34174 10.5296L6.88676 7.98462L4.34174 5.4396C4.04234 5.1402 4.04234 4.64114 4.34174 4.34174C4.64114 4.04234 5.1402 4.04234 5.4396 4.34174L7.98462 6.88676L10.5296 4.34174C10.829 4.04234 11.3281 4.04234 11.6275 4.34174C11.9269 4.64114 11.9269 5.1402 11.6275 5.4396L9.08248 7.98462L11.6275 10.5296C11.9269 10.829 11.9269 11.3281 11.6275 11.6275Z" fill="white"/>
</svg>
