<svg width="22" height="22" viewBox="0 0 22 22" fill="none" xmlns="http://www.w3.org/2000/svg">
<circle cx="11" cy="11" r="11" fill="url(#paint0_linear)"/>
<path fill-rule="evenodd" clip-rule="evenodd" d="M14.0532 8.1412C14.0532 6.45979 12.6839 5.0918 10.9999 5.0918C9.31597 5.0918 7.9466 6.45979 7.9466 8.1412C7.9466 9.82261 9.31597 11.1906 10.9999 11.1906C12.6839 11.1906 14.0532 9.82261 14.0532 8.1412ZM4.51172 13.8588C4.51172 12.1774 5.88109 10.8094 7.56503 10.8094C9.24898 10.8094 10.6184 12.1774 10.6184 13.8588C10.6184 15.5402 9.24898 16.9082 7.56503 16.9082C5.88109 16.9082 4.51172 15.5402 4.51172 13.8588ZM8.70989 12.7153C8.70989 12.5047 8.53901 12.3341 8.32825 12.3341C8.11748 12.3341 7.9466 12.5047 7.9466 12.7153C7.9466 12.9258 8.11748 13.0965 8.32825 13.0965C8.53901 13.0965 8.70989 12.9258 8.70989 12.7153ZM6.80172 12.3341C7.01248 12.3341 7.18337 12.5047 7.18337 12.7153C7.18337 12.9258 7.01248 13.0965 6.80172 13.0965C6.59096 13.0965 6.42007 12.9258 6.42007 12.7153C6.42007 12.5047 6.59096 12.3341 6.80172 12.3341ZM7.5649 15.3835C8.21046 15.3835 8.78891 14.9752 9.00435 14.3673C9.07443 14.1689 8.97006 13.9507 8.77176 13.8807C8.57273 13.8115 8.35578 13.9143 8.28424 14.1127C8.1769 14.4168 7.88768 14.6211 7.5649 14.6211C7.24212 14.6211 6.95289 14.4168 6.84556 14.1127C6.77397 13.9139 6.55707 13.81 6.35803 13.8807C6.15973 13.9507 6.05536 14.1689 6.12545 14.3673C6.34089 14.9752 6.91934 15.3835 7.5649 15.3835ZM14.4351 10.8094C12.7511 10.8094 11.3817 12.1774 11.3817 13.8588C11.3817 15.5402 12.7511 16.9082 14.4351 16.9082C16.119 16.9082 17.4884 15.5402 17.4884 13.8588C17.4884 12.1774 16.119 10.8094 14.4351 10.8094ZM15.58 12.7153C15.58 12.5047 15.4091 12.3341 15.1984 12.3341C14.9876 12.3341 14.8167 12.5047 14.8167 12.7153C14.8167 12.9258 14.9876 13.0965 15.1984 13.0965C15.4091 13.0965 15.58 12.9258 15.58 12.7153ZM13.6716 12.3341C13.8823 12.3341 14.0532 12.5047 14.0532 12.7153C14.0532 12.9258 13.8823 13.0965 13.6716 13.0965C13.4608 13.0965 13.2899 12.9258 13.2899 12.7153C13.2899 12.5047 13.4608 12.3341 13.6716 12.3341ZM15.1544 15.1296C15.2247 15.3262 15.4404 15.4322 15.6419 15.3615C15.8402 15.2916 15.9446 15.0734 15.8745 14.875C15.659 14.2671 15.0806 13.8588 14.435 13.8588C13.7895 13.8588 13.211 14.2671 12.9956 14.875C12.9255 15.0734 13.0299 15.2916 13.2282 15.3615C13.4287 15.4323 13.6449 15.3284 13.7157 15.1296C13.823 14.8255 14.1123 14.6212 14.435 14.6212C14.7578 14.6212 15.047 14.8255 15.1544 15.1296ZM10.6182 7.37884C10.6182 7.1683 10.4474 6.99767 10.2366 6.99767C10.0258 6.99767 9.85495 7.1683 9.85495 7.37884C9.85495 7.58935 10.0258 7.76002 10.2366 7.76002C10.4474 7.76002 10.6182 7.58935 10.6182 7.37884ZM11.7633 9.28474H10.2367C10.0257 9.28474 9.85505 9.11424 9.85505 8.90356C9.85505 8.69289 10.0258 8.52239 10.2367 8.52239H11.7633C11.9743 8.52239 12.145 8.69289 12.145 8.90356C12.145 9.11424 11.9743 9.28474 11.7633 9.28474ZM11.3816 7.37884C11.3816 7.58935 11.5525 7.76002 11.7632 7.76002C11.974 7.76002 12.1449 7.58935 12.1449 7.37884C12.1449 7.1683 11.974 6.99767 11.7632 6.99767C11.5525 6.99767 11.3816 7.1683 11.3816 7.37884Z" fill="url(#paint1_linear)"/>
<defs>
<linearGradient id="paint0_linear" x1="22" y1="22" x2="22" y2="0" gradientUnits="userSpaceOnUse">
<stop stop-color="#FFBEF9"/>
<stop offset="1" stop-color="#FFF1FF"/>
</linearGradient>
<linearGradient id="paint1_linear" x1="17.4883" y1="16.9082" x2="17.4883" y2="5.0918" gradientUnits="userSpaceOnUse">
<stop stop-color="#FF81FF"/>
<stop offset="1" stop-color="#A93AFF"/>
</linearGradient>
</defs>
</svg>
