<svg width="10" height="12" viewBox="0 0 10 12" fill="none" xmlns="http://www.w3.org/2000/svg">
<path d="M9.6403 2.16222C8.3805 0.767821 6.70403 0 4.91909 0C3.13441 0 1.45796 0.767821 0.198162 2.1625C-0.0432676 2.4298 -0.0432676 2.84893 0.198162 3.11622L1.12612 4.14363C1.36862 4.41171 1.81877 4.41197 2.06179 4.14337C2.36651 3.80561 2.71349 3.52716 3.08998 3.31731C3.30563 3.2003 3.43964 2.9665 3.43671 2.74629L3.56965 1.83299C4.54867 1.50986 5.29849 1.51039 6.26899 1.83245L6.39874 2.70692C6.39874 2.96145 6.52929 3.19496 6.74306 3.31861C7.12224 3.53004 7.46922 3.80852 7.77445 4.14654C7.8957 4.28058 8.06613 4.35743 8.24215 4.35743C8.41791 4.35743 8.58833 4.28058 8.70984 4.14626L9.6402 3.1162C9.88173 2.84893 9.88173 2.4298 9.6403 2.16222Z" fill="black"/>
<circle cx="4.91918" cy="4.90795" r="0.544672" fill="black"/>
<circle cx="2.74047" cy="4.90795" r="0.544672" fill="black"/>
<circle cx="7.0979" cy="4.90795" r="0.544672" fill="black"/>
<circle cx="4.91918" cy="7.08569" r="0.544672" fill="black"/>
<circle cx="2.74047" cy="7.08569" r="0.544672" fill="black"/>
<circle cx="7.0979" cy="7.08569" r="0.544672" fill="black"/>
<circle cx="4.91918" cy="9.25952" r="0.544672" fill="black"/>
<circle cx="2.74047" cy="9.25952" r="0.544672" fill="black"/>
<circle cx="7.0979" cy="9.25952" r="0.544672" fill="black"/>
<circle cx="4.91918" cy="11.4392" r="0.544672" fill="black"/>
</svg>
