<svg width="33" height="32" viewBox="0 0 33 32" fill="none" xmlns="http://www.w3.org/2000/svg">
<path d="M25.4706 7.80037H32.4469L24.5337 0V6.86287C24.5337 7.37981 24.9539 7.80037 25.4706 7.80037Z" fill="#E8CB98"/>
<path d="M22.6583 6.86287V0H5.12354C4.60579 0 4.18604 0.41975 4.18604 0.9375V7.25044H14.658C17.4968 7.25044 19.8063 9.55994 19.8063 12.3988V23.2794C19.8063 26.1181 17.4968 28.4277 14.658 28.4277H4.1861V31.0625C4.1861 31.5802 4.60585 32 5.1236 32H31.5091C32.0268 32 32.4466 31.5802 32.4466 31.0625V9.67537H25.4702C23.9197 9.67537 22.6583 8.41369 22.6583 6.86287Z" fill="#E8CB98"/>
<path fill-rule="evenodd" clip-rule="evenodd" d="M17.9941 12.3983V23.2789C17.9941 25.1213 16.5006 26.6147 14.6583 26.6147H3.78259C1.94028 26.6147 0.446777 25.1213 0.446777 23.2789V12.3983C0.446777 10.556 1.94028 9.0625 3.78259 9.0625H14.6583C16.5006 9.0625 17.9941 10.556 17.9941 12.3983ZM9.88334 23.0375L12.7729 20.1479C13.139 19.7818 13.139 19.1882 12.773 18.8221C12.4069 18.4559 11.8133 18.4559 11.4472 18.8221L10.158 20.1112V13.3027C10.1089 12.0598 8.33253 12.0588 8.28296 13.3027V20.1112L6.99384 18.8221C6.62778 18.456 6.03415 18.456 5.66803 18.8221C5.3019 19.1882 5.3019 19.7818 5.66803 20.1479L8.55753 23.0375C8.90653 23.4006 9.53428 23.4006 9.88334 23.0375Z" fill="#E8CB98"/>
</svg>
