<svg width="12" height="9" viewBox="0 0 12 9" fill="none" xmlns="http://www.w3.org/2000/svg">
<path d="M0.25057 0.730219C1.89752 2.12501 4.78741 4.57887 5.63679 5.34398C5.75081 5.44725 5.87311 5.49975 6.00007 5.49975C6.12677 5.49975 6.24886 5.44774 6.36262 5.34497C7.21273 4.5791 10.1026 2.12501 11.7496 0.730219C11.8521 0.643547 11.8678 0.491203 11.7847 0.385242C11.5928 0.140391 11.3067 0 11.0001 0H1.00008C0.693445 0 0.407297 0.140391 0.215414 0.385266C0.132398 0.491203 0.148031 0.643547 0.25057 0.730219Z" fill="black"/>
<path d="M11.855 1.4862C11.7664 1.44495 11.6621 1.45934 11.5884 1.52234C9.76195 3.07067 7.43091 5.05531 6.6975 5.71617C6.28587 6.08775 5.71458 6.08775 5.30198 5.71568C4.52025 5.01134 1.90256 2.78599 0.411609 1.52232C0.337383 1.45932 0.232898 1.44542 0.145008 1.48617C0.0566484 1.52721 0 1.6156 0 1.713V8.00011C0 8.55164 0.448477 9.00012 1.00001 9.00012H11C11.5515 9.00012 12 8.55164 12 8.00011V1.713C12 1.6156 11.9434 1.52698 11.855 1.4862Z" fill="black"/>
</svg>
