<svg width="22" height="11" viewBox="0 0 22 11" fill="none" xmlns="http://www.w3.org/2000/svg">
<path fill-rule="evenodd" clip-rule="evenodd" d="M4.48828 10.6272L6.6633 0.00585938H21.981L19.8058 10.6272H4.48828ZM13.1734 6.18209L19.9713 2.68325C20.2919 2.51846 20.418 2.12563 20.2527 1.80525C20.0883 1.48521 19.6954 1.3593 19.375 1.52386L13.2506 4.67595L8.4681 1.55777C8.16614 1.36098 7.76219 1.446 7.56596 1.74786C7.36944 2.04935 7.45386 2.45311 7.75591 2.64995L13.1734 6.18209Z" fill="black"/>
<path d="M5.94949 0.00585938H0.324698L0 0.957162H5.74084L5.94949 0.00585938Z" fill="black"/>
<path d="M5.54786 1.85254H2.81358L2.48828 2.80379H5.33903L5.54786 1.85254Z" fill="black"/>
<path d="M5.0831 3.7666H0.903427L0.578125 4.718H4.87445L5.0831 3.7666Z" fill="black"/>
</svg>
