<svg width="48" height="48" viewBox="0 0 48 48" fill="none" xmlns="http://www.w3.org/2000/svg">
<circle cx="24" cy="24" r="24" fill="url(#paint0_linear)"/>
<path fill-rule="evenodd" clip-rule="evenodd" d="M14.8401 24.2764V29.9432C14.8401 30.2197 14.9775 30.4775 15.206 30.6328C15.4337 30.7873 15.7272 30.8174 15.9818 30.7165L19.0141 29.5032C23.1349 31.0274 25.5091 31.9168 26.8939 32.4356C28.7037 33.1136 28.8236 33.1585 28.944 33.1597C28.9525 33.1598 28.9611 33.1597 28.9702 33.1595L28.996 33.1593C29.248 33.1593 29.5601 32.9618 29.662 32.8259L33.6605 27.4946C34.4224 26.4741 34.8249 25.2649 34.8249 23.9995C34.8249 21.7056 33.4677 19.6164 31.3754 18.6797C29.5173 17.8258 27.0737 18.0934 25.357 19.4392C23.9648 20.5687 23.1671 22.2308 23.1671 23.9995C23.1671 25.2649 23.5697 26.4741 24.3332 27.4962L26.6292 30.5579L19.2938 27.8305C19.0987 27.7582 18.8864 27.7597 18.6945 27.8378L16.5053 28.7137V24.2767L20.3347 19.1709C21.0605 18.2063 21.5016 16.9865 21.5016 15.6727C21.5016 12.4589 18.8863 9.84375 15.6727 9.84375C12.459 9.84375 9.84384 12.4589 9.84384 15.6726C9.84384 16.9379 10.2464 18.1471 11.0076 19.1668L14.8401 24.2764ZM15.6727 16.5052C16.1322 16.5052 16.5054 16.132 16.5054 15.6726C16.5054 15.2131 16.1322 14.8399 15.6727 14.8399C15.2133 14.8399 14.8401 15.2131 14.8401 15.6726C14.8401 16.132 15.2133 16.5052 15.6727 16.5052ZM28.9959 21.5016C27.6185 21.5016 26.4979 22.6221 26.4979 23.9996C26.4979 25.3771 27.6185 26.4977 28.9959 26.4977C30.3734 26.4977 31.494 25.3771 31.494 23.9996C31.494 22.6222 30.3734 21.5016 28.9959 21.5016ZM15.6727 13.1745C17.0503 13.1745 18.1708 14.2951 18.1708 15.6726C18.1708 17.05 17.0502 18.1706 15.6727 18.1706C14.2953 18.1706 13.1747 17.05 13.1747 15.6726C13.1747 14.2951 14.2952 13.1745 15.6727 13.1745ZM29.8287 23.9996C29.8287 24.4591 29.4555 24.8323 28.996 24.8323C28.5366 24.8323 28.1632 24.459 28.1633 23.9996C28.1633 23.5402 28.5366 23.1669 28.996 23.1669C29.4555 23.1669 29.8287 23.5402 29.8287 23.9996ZM18.1709 26.2553L18.171 26.2553V26.2553H18.1709ZM18.171 26.2553V24.8316L21.6661 20.1719C22.3413 19.2745 22.5012 18.7766 22.7257 18.0776L22.7693 17.9419L23.9931 18.432C22.4104 19.8668 21.5017 21.8682 21.5017 23.9995C21.5017 25.0991 21.7569 26.158 22.2128 27.139L19.8729 26.2691C19.5923 26.1651 19.2997 26.1122 19.002 26.1122C18.715 26.1122 18.4337 26.161 18.171 26.2553ZM37.0596 16.5484C37.3132 16.4605 37.5906 16.5052 37.8101 16.6622C38.0273 16.8191 38.1557 17.0705 38.1556 17.3379V33.992C38.1556 34.3506 37.9263 34.6685 37.5863 34.7815L27.5939 38.1124C27.4076 38.1758 27.2035 38.1701 27.0214 38.0962L19.0034 34.889L10.9854 38.0962C10.736 38.1963 10.4443 38.1706 10.2097 38.0123C9.98119 37.8571 9.84375 37.5993 9.84375 37.3228V20.6688C9.84375 20.6237 9.86051 20.5842 9.87739 20.5445C9.88753 20.5206 9.8977 20.4967 9.90431 20.4713L13.1745 24.8317V29.9431C13.1745 30.7709 13.5835 31.5443 14.2707 32.011C14.966 32.4813 15.8346 32.5654 16.6005 32.2623L19.036 31.2881C22.2235 32.451 24.3077 33.2415 25.7129 33.7746C27.984 34.636 28.4812 34.8247 28.9959 34.8247C29.8985 34.8247 30.316 34.4387 30.7011 34.0826C30.7983 33.9927 30.8935 33.9047 30.9939 33.8253L34.9948 28.4908C35.9731 27.1808 36.4903 25.6276 36.4903 23.9996C36.4903 21.502 35.2329 19.2037 33.2226 17.827L37.0596 16.5484Z" fill="url(#paint1_linear)"/>
<defs>
<linearGradient id="paint0_linear" x1="48" y1="48" x2="48" y2="0" gradientUnits="userSpaceOnUse">
<stop stop-color="#FFE59A"/>
<stop offset="1" stop-color="#FFFFD5"/>
</linearGradient>
<linearGradient id="paint1_linear" x1="38.1558" y1="38.1562" x2="38.1558" y2="9.84366" gradientUnits="userSpaceOnUse">
<stop stop-color="#FFDE00"/>
<stop offset="1" stop-color="#FD5900"/>
</linearGradient>
</defs>
</svg>
