<svg width="48" height="48" viewBox="0 0 48 48" fill="none" xmlns="http://www.w3.org/2000/svg">
<circle cx="24" cy="24" r="24" fill="url(#paint0_linear)"/>
<path fill-rule="evenodd" clip-rule="evenodd" d="M23.1662 10.6765C23.1662 10.2162 23.5387 9.84375 23.999 9.84375C31.8054 9.84375 38.1561 16.1944 38.1561 24.0008C38.1561 24.4612 37.7836 24.8336 37.3233 24.8336C36.863 24.8336 36.4905 24.4612 36.4905 24.0008C36.4905 17.1127 30.8872 11.5093 23.999 11.5093C23.5387 11.5093 23.1662 11.1368 23.1662 10.6765ZM31.4939 24.0008C31.4939 19.8679 28.1319 16.5059 23.999 16.5059C23.5388 16.5059 23.1662 16.1335 23.1662 15.6732C23.1662 15.2129 23.5387 14.8404 23.999 14.8404C29.0501 14.8404 33.1595 18.9498 33.1595 24.0008C33.1595 24.4612 32.787 24.8336 32.3267 24.8336C31.8664 24.8336 31.4939 24.4612 31.4939 24.0008ZM23.999 21.5025C25.3766 21.5025 26.4973 22.6232 26.4973 24.0008C26.4973 24.4611 26.8698 24.8335 27.3301 24.8335C27.7904 24.8335 28.1629 24.4611 28.1629 24.0008C28.1629 21.7049 26.2948 19.8369 23.9991 19.8369C23.5388 19.8369 23.1663 20.2094 23.1663 20.6697C23.1662 21.13 23.5388 21.5025 23.999 21.5025ZM27.4073 27.6588C27.7196 27.3465 28.2727 27.3465 28.5849 27.6588L33.8847 32.9587C34.21 33.2841 34.21 33.811 33.8847 34.1363L31.0823 36.9388C29.6667 38.3529 27.4383 38.5604 25.7807 37.4284C16.7463 31.2549 12.8809 25.5988 10.5721 22.2189C9.44007 20.5624 9.64585 18.3333 11.0609 16.9174L13.8634 14.1149C14.1887 13.7896 14.7157 13.7896 15.041 14.1149L20.3409 19.4149C20.6663 19.7402 20.6661 20.2673 20.3409 20.5925L18.2444 22.689C21.2754 26.5462 22.9889 27.9613 25.3091 29.7578L27.4073 27.6588Z" fill="url(#paint1_linear)"/>
<defs>
<linearGradient id="paint0_linear" x1="48" y1="48" x2="48" y2="0" gradientUnits="userSpaceOnUse">
<stop stop-color="#ADDCFF"/>
<stop offset="0.5028" stop-color="#EAF6FF"/>
<stop offset="1" stop-color="#EAF6FF"/>
</linearGradient>
<linearGradient id="paint1_linear" x1="38.1561" y1="38.1562" x2="38.1561" y2="9.84375" gradientUnits="userSpaceOnUse">
<stop stop-color="#00C0FF"/>
<stop offset="1" stop-color="#5558FF"/>
</linearGradient>
</defs>
</svg>
