<svg width="49" height="49" viewBox="0 0 49 49" fill="none" xmlns="http://www.w3.org/2000/svg">
<circle cx="24.875" cy="24.8438" r="24" fill="url(#paint0_linear)"/>
<path fill-rule="evenodd" clip-rule="evenodd" d="M24.875 10.6875C17.0691 10.6875 10.7188 17.0378 10.7188 24.8438C10.7188 32.6497 17.0691 39 24.875 39C32.6809 39 39.0312 32.6497 39.0312 24.8438C39.0312 17.0378 32.6809 10.6875 24.875 10.6875ZM26.5754 21.8438L24.875 18.3983L23.1738 21.8438C23.0527 22.0895 22.8184 22.2602 22.5468 22.2993L18.7451 22.8522L21.497 25.5341C21.6929 25.7252 21.7825 26.0009 21.7361 26.2709L21.0863 30.058L24.4879 28.2706C24.609 28.2064 24.7416 28.1746 24.875 28.1746C25.0084 28.1746 25.1409 28.2063 25.2621 28.2706L28.6637 30.058L28.0139 26.2709C27.9675 26.0009 28.0571 25.7253 28.253 25.5341L31.0049 22.8522L27.2023 22.2993C26.9307 22.2602 26.6966 22.0895 26.5754 21.8438ZM29.729 26.4214L33.3763 22.8668C33.6031 22.6457 33.6844 22.3147 33.5866 22.0138C33.4883 21.7121 33.228 21.4926 32.9142 21.447L27.8747 20.7143L25.6213 16.1482C25.4815 15.8636 25.192 15.6839 24.8748 15.6839C24.5577 15.6839 24.2682 15.8636 24.1283 16.1482L21.8741 20.7143L16.8355 21.447C16.5216 21.4926 16.2614 21.7121 16.163 22.0138C16.0655 22.3147 16.1468 22.6457 16.3737 22.8668L20.0209 26.4214L19.1597 31.4396C19.1061 31.7519 19.2346 32.0675 19.4908 32.2537C19.7486 32.4415 20.0901 32.4667 20.3674 32.3171L24.875 29.9482L29.3825 32.3171C29.6589 32.4637 30.0011 32.4422 30.2592 32.2537C30.5154 32.0674 30.6439 31.7519 30.5902 31.4396L29.729 26.4214Z" fill="url(#paint1_linear)"/>
<defs>
<linearGradient id="paint0_linear" x1="48.875" y1="48.8438" x2="48.875" y2="0.84375" gradientUnits="userSpaceOnUse">
<stop stop-color="#FFE59A"/>
<stop offset="1" stop-color="#FFFFD5"/>
</linearGradient>
<linearGradient id="paint1_linear" x1="10.7188" y1="10.6875" x2="10.7188" y2="39" gradientUnits="userSpaceOnUse">
<stop stop-color="#FD5900"/>
<stop offset="1" stop-color="#FFDE00"/>
</linearGradient>
</defs>
</svg>
