<svg width="35" height="48" viewBox="0 0 35 48" fill="none" xmlns="http://www.w3.org/2000/svg">
<path d="M34.8198 13.147V44.9077C34.8198 46.6158 33.4344 47.9999 31.7277 47.9999H3.14733C1.4393 47.9999 0.0551758 46.6158 0.0551758 44.9077V3.09216C0.055082 1.38412 1.43921 0 3.14733 0H21.6728L34.8198 13.147Z" fill="#518EF8"/>
<rect x="8.5481" y="24.0996" width="17.7774" height="1.97541" fill="white"/>
<rect x="8.5481" y="28.5098" width="17.7774" height="1.97541" fill="white"/>
<rect x="8.5481" y="32.9219" width="17.7774" height="1.97541" fill="white"/>
<rect x="8.5481" y="37.334" width="12.6427" height="1.97541" fill="white"/>
<path d="M23.4666 12.861L34.8199 17.5383V13.1467L28.3829 11.2461L23.4666 12.861Z" fill="#3A5BBC"/>
<path d="M34.8199 13.147H24.765C23.0569 13.147 21.6729 11.7629 21.6729 10.0549V0L34.8199 13.147Z" fill="#ACD1FC"/>
</svg>
