<svg width="43" height="48" viewBox="0 0 43 48" fill="none" xmlns="http://www.w3.org/2000/svg">
<path d="M42.8297 11.5627L33.0204 1.75343C32.9451 1.6781 32.843 1.63576 32.7364 1.63574H15.344C14.2353 1.63707 13.3369 2.53547 13.3356 3.64411V36.1933C13.0508 36.1098 12.7724 36.0059 12.5025 35.8824C11.9305 35.5874 11.2444 35.62 10.7029 35.9679C10.1613 36.3158 9.84651 36.9262 9.87703 37.5691C9.90756 38.2121 10.2788 38.7899 10.8509 39.085C12.2106 39.7313 13.6947 40.074 15.2002 40.0892C15.2452 40.0892 15.2885 40.0835 15.3335 40.0827H15.344H25.8678L26.5908 40.6499L26.149 46.0918C26.072 47.0431 26.7762 47.8786 27.7267 47.9639C28.6773 48.0492 29.519 47.3525 29.6126 46.4027L30.2328 40.0847H40.9575C42.0661 40.0834 42.9645 39.185 42.9659 38.0764V11.8648C42.9661 11.7492 42.9164 11.6391 42.8297 11.5627V11.5627Z" fill="#E6E7E8"/>
<path d="M23.5564 43.1357H5.22199C5.00015 43.1357 4.82031 43.3156 4.82031 43.5374C4.82031 43.7593 5.00015 43.9391 5.22199 43.9391H23.5564C23.7782 43.9391 23.9581 43.7593 23.9581 43.5374C23.9581 43.3156 23.7782 43.1357 23.5564 43.1357Z" fill="#E6E7E8"/>
<path d="M8.68217 39.5042C8.68217 39.2824 8.50233 39.1025 8.2805 39.1025H2.02081C1.79898 39.1025 1.61914 39.2824 1.61914 39.5042C1.61914 39.7261 1.79898 39.9059 2.02081 39.9059H8.2805C8.50233 39.9059 8.68217 39.7261 8.68217 39.5042Z" fill="#E6E7E8"/>
<path d="M10.6528 47.167H8.04913C7.8273 47.167 7.64746 47.3468 7.64746 47.5687C7.64746 47.7905 7.8273 47.9703 8.04913 47.9703H10.6528C10.8746 47.9703 11.0545 47.7905 11.0545 47.5687C11.0545 47.3468 10.8746 47.167 10.6528 47.167Z" fill="#E6E7E8"/>
<path d="M21.9662 47.167H12.2943C12.0724 47.167 11.8926 47.3468 11.8926 47.5687C11.8926 47.7905 12.0724 47.9703 12.2943 47.9703H21.9662C22.188 47.9703 22.3678 47.7905 22.3678 47.5687C22.3678 47.3468 22.188 47.167 21.9662 47.167Z" fill="#E6E7E8"/>
<path d="M40.9573 10.2584L31.1295 0.430664H13.7371C12.8497 0.430664 12.1304 1.15001 12.1304 2.03736V36.4688C12.1304 37.3562 12.8497 38.0755 13.7371 38.0755H39.353C40.2404 38.0755 40.9597 37.3562 40.9597 36.4688V10.258L40.9573 10.2584Z" fill="#0F1049"/>
<path d="M31.1299 0.430664V8.65172C31.1299 9.53907 31.8492 10.2584 32.7366 10.2584H40.9584L31.1299 0.430664Z" fill="#1A1B6F"/>
<path d="M39.3517 10.2584H40.9584L31.1307 0.430664L31.1299 0.431066V2.03656L39.3517 10.2584Z" fill="white"/>
<path d="M37.2844 21.2073C36.923 21.0319 36.5038 21.0197 36.1329 21.1738C35.762 21.328 35.4749 21.6336 35.3443 22.0135C34.6741 23.7724 32.9512 24.903 31.0709 24.818C29.3007 24.818 28.213 24.06 26.9529 23.1823C25.5671 22.2183 23.9934 21.1222 21.5617 21.225C17.1669 21.4078 14.1709 25.7326 14.0455 25.9165C13.7637 26.3299 13.7238 26.8622 13.9409 27.313C14.1579 27.7638 14.599 28.0645 15.0979 28.1019C15.5968 28.1393 16.0777 27.9077 16.3596 27.4943C16.3825 27.4606 18.7206 24.1468 21.6781 24.0239C22.2346 23.9962 22.7907 24.0854 23.3105 24.2857L19.6099 30.6944C18.7556 32.0734 17.1517 34.2175 15.4245 34.9341C13.1936 35.86 10.7293 34.6421 10.7104 34.6329C10.0227 34.2786 9.17806 34.5489 8.82378 35.2366C8.46951 35.9243 8.7398 36.769 9.4275 37.1232C10.7295 37.7421 12.1509 38.0694 13.5925 38.0824C14.5884 38.0895 15.5759 37.899 16.4978 37.5221C17.8995 36.87 19.137 35.9115 20.1188 34.7172L25.4017 38.8617L24.9441 44.5168C24.9136 44.8892 25.0403 45.2573 25.2935 45.532C25.5467 45.8068 25.9033 45.963 26.2769 45.9629C26.9643 45.9629 27.5397 45.4418 27.6076 44.7578L28.2503 38.2274C28.311 37.6089 28.0629 37.0002 27.5872 36.6003L24.5425 34.0275L28.4837 27.1991C29.3169 27.4792 30.1906 27.6201 31.0697 27.616C34.1016 27.6756 36.8501 25.8412 37.9584 23.0185C38.225 22.3312 37.9355 21.5531 37.2844 21.2073Z" fill="#FCF055"/>
<circle cx="29.3642" cy="19.5859" r="3.15033" fill="#EB9138"/>
<path fill-rule="evenodd" clip-rule="evenodd" d="M31.4139 0.146987L41.2268 9.95987C41.3118 10.0358 41.3603 10.1444 41.3601 10.2583V18.9389C41.3601 19.1607 41.1803 19.3406 40.9584 19.3406C40.7366 19.3406 40.5568 19.1607 40.5568 18.9389V10.6604H32.7366C31.6279 10.6591 30.7295 9.76067 30.7282 8.65203V0.832644H13.7358C13.0703 0.832644 12.5308 1.37215 12.5308 2.03767V34.7797C13.446 34.9701 14.3965 34.8952 15.2706 34.564C17.1115 33.8008 18.7957 31.247 19.2685 30.483L22.7104 24.5205C22.3782 24.4404 22.0362 24.4086 21.695 24.4262C18.9383 24.5406 16.711 27.6918 16.6889 27.7235C16.1222 28.5297 15.013 28.7311 14.199 28.1756C13.3851 27.6201 13.1683 26.5138 13.7125 25.6922C13.8439 25.501 16.9548 21.0163 21.5451 20.8255C24.1061 20.7132 25.7398 21.8504 27.1779 22.8514L27.1822 22.8544C28.4363 23.728 29.4272 24.4181 31.0712 24.4181C32.7802 24.5024 34.3503 23.4804 34.9651 21.8836C35.1333 21.3953 35.5026 21.0025 35.9795 20.8045C36.4564 20.6065 36.9953 20.6222 37.4599 20.8476C38.2994 21.2799 38.6779 22.2757 38.3375 23.1565C37.1749 26.1409 34.2735 28.0829 31.0712 28.0199C30.2592 28.0237 29.4509 27.9096 28.6716 27.6813L25.0606 33.9378L27.8474 36.2936C28.2637 36.646 28.5401 37.1357 28.6267 37.6741H39.3513C40.0169 37.6741 40.5564 37.1346 40.5564 36.4691V28.8932C40.5564 28.6713 40.7362 28.4915 40.958 28.4915C41.1799 28.4915 41.3597 28.6713 41.3597 28.8932V36.4699C41.3584 37.5786 40.46 38.477 39.3513 38.4783H28.6267L28.0061 44.7958C27.9115 45.7448 27.0704 46.4405 26.1205 46.3554C25.1707 46.2702 24.4667 45.436 24.5424 44.4853L24.9843 39.0439L24.2613 38.4763H13.7374H13.7262C13.7056 38.4767 13.6852 38.4781 13.6649 38.4795H13.6648H13.6647C13.6411 38.4811 13.6175 38.4827 13.5936 38.4827C12.0882 38.4675 10.604 38.1249 9.24429 37.4785C8.35993 37.0224 8.01276 35.9358 8.46886 35.0514C8.92496 34.1671 10.0116 33.8199 10.896 34.276C11.1658 34.3997 11.4442 34.5038 11.729 34.5873V2.03767C11.7304 0.929025 12.6288 0.0306249 13.7374 0.0292969H31.1299C31.2364 0.0293196 31.3386 0.0716536 31.4139 0.146987ZM20.1666 35.2653C19.3054 36.2453 18.2744 37.0618 17.1231 37.6754H23.237L20.1666 35.2653ZM15.5783 35.3055C17.583 34.4732 19.3046 31.9515 19.9565 30.8955L23.6588 24.486C23.7176 24.384 23.7288 24.2612 23.6892 24.1503C23.6496 24.0393 23.5633 23.9513 23.4531 23.9096C22.8826 23.6902 22.2726 23.5923 21.662 23.622C18.4985 23.7537 16.0519 27.233 16.0286 27.2676C15.7102 27.7112 15.0998 27.8269 14.6412 27.5307C14.1862 27.2195 14.0685 26.599 14.3781 26.1429C14.4986 25.9658 17.3874 21.8008 21.5797 21.6265C23.8801 21.5306 25.3855 22.5807 26.7191 23.511L26.7239 23.5144L26.7273 23.5167C27.9869 24.3939 29.1758 25.2219 31.072 25.2219C33.1232 25.3054 34.9976 24.0668 35.725 22.1471C35.8195 21.8744 36.0261 21.6551 36.2926 21.5445C36.5559 21.4343 36.8541 21.4437 37.11 21.5703C37.575 21.8277 37.7771 22.39 37.5824 22.8845C36.5357 25.5515 33.9355 27.2815 31.0712 27.2166C30.2356 27.221 29.405 27.0874 28.613 26.8209C28.4317 26.7599 28.2326 26.8352 28.137 27.0009L24.1958 33.8269C24.0988 33.9952 24.1362 34.2088 24.2846 34.3342L27.328 36.907C27.7007 37.2224 27.8947 37.7008 27.847 38.1867L27.2043 44.7167C27.1582 45.2311 26.7037 45.6108 26.1893 45.5646C25.6749 45.5185 25.2952 45.064 25.3414 44.5496L25.8005 38.8948C25.8114 38.7604 25.754 38.6294 25.6478 38.5462L20.365 34.3997C20.1971 34.2679 19.9553 34.2905 19.8147 34.4511C18.8768 35.6022 17.6893 36.5249 16.3423 37.1496C15.4691 37.5063 14.534 37.6863 13.5908 37.6794C12.2131 37.6674 10.8546 37.3553 9.60981 36.7648C9.28696 36.604 9.0759 36.2816 9.05766 35.9214C9.03942 35.5612 9.21684 35.2191 9.5218 35.0266C9.82676 34.834 10.2119 34.8209 10.5292 34.9922C10.6377 35.046 13.1891 36.2968 15.5783 35.3051V35.3055ZM31.5316 1.40061V8.65203C31.5316 9.31754 32.0711 9.85705 32.7366 9.85705H39.9884L31.5316 1.40061Z" fill="#3A2C60"/>
<path d="M40.9583 20.6641C40.7365 20.6641 40.5566 20.8439 40.5566 21.0657V26.8028C40.5566 27.0247 40.7365 27.2045 40.9583 27.2045C41.1802 27.2045 41.36 27.0247 41.36 26.8028V21.0657C41.36 20.8439 41.1802 20.6641 40.9583 20.6641Z" fill="#3A2C60"/>
<path fill-rule="evenodd" clip-rule="evenodd" d="M25.8125 19.5862C25.8125 17.6245 27.4028 16.0342 29.3645 16.0342C31.3253 16.0364 32.9143 17.6254 32.9165 19.5862C32.9165 21.5479 31.3262 23.1382 29.3645 23.1382C27.4028 23.1382 25.8125 21.5479 25.8125 19.5862ZM26.6158 19.5862C26.6158 21.1042 27.8465 22.3348 29.3645 22.3348C30.8819 22.3333 32.1116 21.1036 32.1132 19.5862C32.1132 18.0681 30.8825 16.8375 29.3645 16.8375C27.8465 16.8375 26.6158 18.0681 26.6158 19.5862Z" fill="#3A2C60"/>
<path d="M21.9498 41.5293H3.61505C3.39321 41.5293 3.21338 41.7091 3.21338 41.931C3.21338 42.1528 3.39321 42.3326 3.61505 42.3326H21.9498C22.1717 42.3326 22.3515 42.1528 22.3515 41.931C22.3515 41.7091 22.1717 41.5293 21.9498 41.5293Z" fill="#3A2C60"/>
<path d="M7.07572 37.8978C7.07572 37.6759 6.89589 37.4961 6.67405 37.4961H0.414369C0.192531 37.4961 0.0126953 37.6759 0.0126953 37.8978C0.0126953 38.1196 0.192531 38.2994 0.414369 38.2994H6.67405C6.89589 38.2994 7.07572 38.1196 7.07572 37.8978Z" fill="#3A2C60"/>
<path d="M9.04625 45.5615H6.4422C6.22036 45.5615 6.04053 45.7414 6.04053 45.9632C6.04053 46.185 6.22036 46.3649 6.4422 46.3649H9.04625C9.26809 46.3649 9.44792 46.185 9.44792 45.9632C9.44792 45.7414 9.26809 45.5615 9.04625 45.5615Z" fill="#3A2C60"/>
<path d="M20.3597 45.5615H10.6878C10.466 45.5615 10.2861 45.7414 10.2861 45.9632C10.2861 46.185 10.466 46.3649 10.6878 46.3649H20.3597C20.5815 46.3649 20.7614 46.185 20.7614 45.9632C20.7614 45.7414 20.5815 45.5615 20.3597 45.5615Z" fill="#3A2C60"/>
<path d="M19.6794 8.32196V8.33441C19.6784 8.53655 19.576 8.72469 19.4069 8.8354C19.2378 8.9461 19.0244 8.96462 18.8387 8.88471L15.447 7.41458C15.1304 7.2783 14.9251 6.96678 14.9248 6.62208V6.61284C14.9251 6.26813 15.1304 5.95662 15.447 5.82034L18.8387 4.35021C19.0248 4.2698 19.2388 4.28836 19.4083 4.39958C19.5778 4.51081 19.68 4.6998 19.6802 4.90251V4.92019C19.6803 5.16933 19.5271 5.39284 19.2946 5.48253L16.3672 6.60722L19.2994 7.76122C19.5291 7.85251 19.6798 8.0748 19.6794 8.32196V8.32196Z" fill="white"/>
<path d="M22.359 2.9923C22.2148 2.95735 22.0627 2.98114 21.936 3.05844C21.8094 3.13573 21.7186 3.2602 21.6838 3.40442L20.1924 9.5677C20.1201 9.86828 20.3052 10.1705 20.6057 10.2429C20.649 10.2533 20.6933 10.2585 20.7379 10.2586C20.9961 10.259 21.2208 10.082 21.2809 9.83079L22.7723 3.66751C22.8071 3.52316 22.7831 3.37089 22.7056 3.24425C22.6281 3.1176 22.5034 3.02696 22.359 2.9923V2.9923Z" fill="white"/>
<path d="M27.5189 7.4027L24.1267 8.88006C23.9405 8.96133 23.7259 8.94327 23.5558 8.83203C23.3858 8.72079 23.2833 8.53134 23.2832 8.32816V8.31972C23.2834 8.07222 23.4349 7.84998 23.6652 7.75939L26.605 6.60498L23.668 5.46865C23.4359 5.37869 23.283 5.15525 23.2832 4.9063C23.2835 4.70384 23.3855 4.51507 23.5546 4.40382C23.7238 4.29256 23.9375 4.2737 24.1235 4.3536L27.5152 5.8169C27.8321 5.95338 28.0373 6.26523 28.0374 6.6102C28.0378 6.95408 27.8341 7.26541 27.5189 7.4027V7.4027Z" fill="white"/>
</svg>
