<svg width="48" height="47" viewBox="0 0 48 47" fill="none" xmlns="http://www.w3.org/2000/svg">
<path d="M44.5402 1.59082H5.02098C3.13272 1.59297 1.60246 3.12305 1.6001 5.01131V16.3635C1.60182 18.2523 3.1322 19.7832 5.02098 19.7856H21.458L21.8928 20.3912C15.3443 21.8628 10.9499 28.0234 11.6902 34.6942C12.4305 41.3651 18.0688 46.4122 24.7806 46.4122C31.4924 46.4122 37.1306 41.3651 37.8709 34.6942C38.6113 28.0234 34.2169 21.8628 27.6684 20.3912L28.1031 19.7856H44.5402C46.4285 19.7832 47.9585 18.2529 47.9607 16.3647V5.01131C47.9585 3.12312 46.4284 1.59297 44.5402 1.59082Z" fill="#E6E7E8"/>
<circle cx="23.2195" cy="31.6779" r="12.7805" fill="#0F1049"/>
<path d="M26.6808 34.1074C24.6705 35.7641 21.7682 35.7641 19.7579 34.1074C17.4163 34.1914 15.5611 36.1135 15.5601 38.4567V41.9096C20.1007 45.3083 26.3381 45.3083 30.8787 41.9096V38.4567C30.8777 36.1135 29.0225 34.1914 26.6808 34.1074V34.1074Z" fill="#FCF055"/>
<circle cx="23.2197" cy="29.9072" r="5.44234" fill="#FCF055"/>
<path d="M23.2197 25.6353C25.9985 25.6358 28.3308 27.7296 28.6296 30.4923C28.8584 28.4173 27.8802 26.3943 26.1117 25.2851C24.3432 24.1758 22.0961 24.1758 20.3277 25.2851C18.5592 26.3943 17.581 28.4173 17.8097 30.4923C18.1086 27.7296 20.4409 25.6358 23.2197 25.6353V25.6353Z" fill="white"/>
<path d="M3.45983 0.419922H42.9791C44.6526 0.419922 46.0093 1.77661 46.0093 3.45017V14.4125C46.0093 16.0859 44.6524 17.833 42.9791 17.833H26.3414L23.2194 22.1963L20.0975 17.8342H3.45983C1.78608 17.8342 0.429199 16.0859 0.429199 14.4125V3.45017C0.429096 2.6464 0.748373 1.87552 1.31676 1.30721C1.88515 0.738893 2.65606 0.419715 3.45983 0.419922Z" fill="#EB9138"/>
<path d="M7.67282 4.61523L8.86033 7.02108L11.514 7.40703C11.6226 7.42282 11.7128 7.49885 11.7467 7.60318C11.7807 7.70752 11.7525 7.82208 11.674 7.89874L9.75282 9.77191L10.2063 12.4162C10.2248 12.5244 10.1803 12.6337 10.0916 12.6982C10.0028 12.7627 9.8851 12.7712 9.78794 12.7202L7.41448 11.473L5.03984 12.7218C4.94269 12.7728 4.825 12.7642 4.73622 12.6997C4.64745 12.6352 4.60298 12.5259 4.6215 12.4178L5.07497 9.77347L3.15379 7.9003C3.0753 7.82364 3.04711 7.70908 3.08106 7.60474C3.11501 7.50041 3.20522 7.42438 3.31379 7.40859L5.96745 7.02264L7.15497 4.61679C7.2029 4.51759 7.30323 4.45443 7.4134 4.4541C7.52358 4.45377 7.62428 4.51632 7.67282 4.61523V4.61523Z" fill="#FCF055"/>
<path d="M18.2094 4.61523L19.397 7.02108L22.0506 7.40703C22.1592 7.42282 22.2494 7.49885 22.2833 7.60318C22.3173 7.70752 22.2891 7.82208 22.2106 7.89874L20.2894 9.77191L20.7429 12.4162C20.7614 12.5244 20.717 12.6337 20.6282 12.6982C20.5394 12.7627 20.4217 12.7712 20.3246 12.7202L17.9511 11.473L15.5765 12.7218C15.4793 12.7728 15.3616 12.7642 15.2728 12.6997C15.1841 12.6352 15.1396 12.5259 15.1581 12.4178L15.6116 9.77347L13.6904 7.9003C13.6119 7.82364 13.5837 7.70908 13.6177 7.60474C13.6516 7.50041 13.7418 7.42438 13.8504 7.40859L16.5041 7.02264L17.6916 4.61679C17.7395 4.51759 17.8399 4.45443 17.95 4.4541C18.0602 4.45377 18.1609 4.51632 18.2094 4.61523V4.61523Z" fill="#FCF055"/>
<path d="M28.7461 4.61523L29.9336 7.02108L32.5872 7.40703C32.6958 7.42282 32.786 7.49885 32.82 7.60318C32.8539 7.70752 32.8257 7.82208 32.7472 7.89874L30.8261 9.77191L31.2795 12.4162C31.298 12.5244 31.2536 12.6337 31.1648 12.6982C31.076 12.7627 30.9583 12.7712 30.8612 12.7202L28.4877 11.473L26.1131 12.7218C26.0159 12.7728 25.8982 12.7642 25.8095 12.6997C25.7207 12.6352 25.6762 12.5259 25.6947 12.4178L26.1482 9.77347L24.227 7.9003C24.1485 7.82364 24.1203 7.70908 24.1543 7.60474C24.1882 7.50041 24.2785 7.42438 24.387 7.40859L27.0407 7.02264L28.2282 4.61679C28.2761 4.51759 28.3765 4.45443 28.4866 4.4541C28.5968 4.45377 28.6975 4.51632 28.7461 4.61523Z" fill="#FCF055"/>
<path d="M39.2827 4.61523L40.4702 7.02108L43.1239 7.40703C43.2324 7.42282 43.3226 7.49885 43.3566 7.60318C43.3905 7.70752 43.3623 7.82208 43.2839 7.89874L41.3627 9.77191L41.8161 12.4162C41.8347 12.5244 41.7902 12.6337 41.7014 12.6982C41.6127 12.7627 41.495 12.7712 41.3978 12.7202L39.0243 11.473L36.6497 12.7218C36.5526 12.7728 36.4349 12.7642 36.3461 12.6997C36.2573 12.6352 36.2128 12.5259 36.2314 12.4178L36.6848 9.77347L34.7637 7.9003C34.6852 7.82364 34.657 7.70908 34.6909 7.60474C34.7249 7.50041 34.8151 7.42438 34.9237 7.40859L37.5773 7.02264L38.7648 4.61679C38.8128 4.51759 38.9131 4.45443 39.0233 4.4541C39.1334 4.45377 39.2341 4.51632 39.2827 4.61523V4.61523Z" fill="white"/>
<path fill-rule="evenodd" clip-rule="evenodd" d="M11.5732 7.02095C11.8287 7.05762 12.0408 7.23686 12.1196 7.48261C12.2005 7.72842 12.1335 7.99888 11.9471 8.17842L10.1731 9.90759L10.5922 12.3501C10.6356 12.6046 10.5309 12.8617 10.322 13.0134C10.113 13.1651 9.83615 13.1851 9.60759 13.065L7.41481 11.9123L5.22398 13.065C4.99548 13.1861 4.718 13.1665 4.50875 13.0146C4.29951 12.8627 4.195 12.6049 4.2394 12.3501L4.65813 9.90759L2.88369 8.17802C2.69869 7.99779 2.63211 7.72813 2.71197 7.4825C2.79183 7.23687 3.00426 7.05792 3.25988 7.02095L5.71179 6.66466L6.80876 4.443C6.92281 4.21125 7.15866 4.06445 7.41696 4.06445C7.67525 4.06445 7.9111 4.21125 8.02515 4.443L9.12174 6.66466L11.5732 7.02095ZM9.3711 9.83734C9.34935 9.7108 9.39123 9.58166 9.4831 9.49198L11.2548 7.76359L8.80486 7.40768C8.67775 7.38922 8.56786 7.3094 8.51101 7.19422L7.41481 4.97373L6.31901 7.19422C6.26215 7.3094 6.15226 7.38922 6.02515 7.40768L3.57442 7.76359L5.34769 9.49198C5.43956 9.58166 5.48144 9.7108 5.45969 9.83734L5.04135 12.2783L7.23296 11.1259C7.34678 11.066 7.48284 11.066 7.59666 11.1259L9.78945 12.2779L9.3711 9.83734Z" fill="#3A2C60"/>
<path fill-rule="evenodd" clip-rule="evenodd" d="M22.1099 7.02095C22.3653 7.05762 22.5774 7.23686 22.6562 7.48261C22.7372 7.72842 22.6701 7.99888 22.4837 8.17842L20.7097 9.90759L21.1288 12.3501C21.1722 12.6046 21.0675 12.8617 20.8586 13.0134C20.6497 13.1651 20.3728 13.1851 20.1442 13.065L17.9514 11.9123L15.7606 13.065C15.5321 13.1861 15.2546 13.1665 15.0454 13.0146C14.8361 12.8627 14.7316 12.6049 14.776 12.3501L15.1947 9.90759L13.4203 8.17802C13.2353 7.99779 13.1687 7.72813 13.2486 7.4825C13.3284 7.23687 13.5409 7.05792 13.7965 7.02095L16.2484 6.66466L17.3454 4.443C17.4594 4.21125 17.6953 4.06445 17.9536 4.06445C18.2119 4.06445 18.4477 4.21125 18.5618 4.443L19.6584 6.66466L22.1099 7.02095ZM19.9077 9.83734C19.886 9.7108 19.9279 9.58166 20.0197 9.49198L21.7914 7.76359L19.3415 7.40768C19.2144 7.38922 19.1045 7.3094 19.0476 7.19422L17.9514 4.97373L16.8556 7.19422C16.7988 7.3094 16.6889 7.38922 16.5618 7.40768L14.111 7.76359L15.8843 9.49198C15.9762 9.58166 16.0181 9.7108 15.9963 9.83734L15.578 12.2783L17.7696 11.1259C17.8834 11.066 18.0195 11.066 18.1333 11.1259L20.3261 12.2779L19.9077 9.83734Z" fill="#3A2C60"/>
<path fill-rule="evenodd" clip-rule="evenodd" d="M32.6441 7.02095C32.9002 7.05693 33.1133 7.23629 33.1923 7.48261C33.2733 7.72842 33.2062 7.99888 33.0199 8.17842L31.2458 9.90759L31.6649 12.3501C31.7084 12.6046 31.6036 12.8617 31.3947 13.0134C31.1858 13.1651 30.9089 13.1851 30.6803 13.065L28.4876 11.9123L26.2948 13.065C26.0663 13.1861 25.7888 13.1665 25.5796 13.0146C25.3703 12.8627 25.2658 12.6049 25.3102 12.3501L25.7289 9.90759L23.9545 8.17802C23.7695 7.99779 23.7029 7.72813 23.7828 7.4825C23.8626 7.23687 24.0751 7.05792 24.3307 7.02095L26.7826 6.66466L27.8796 4.443C27.9936 4.21125 28.2295 4.06445 28.4878 4.06445C28.7461 4.06445 28.9819 4.21125 29.096 4.443L30.1925 6.66466L32.6441 7.02095ZM30.4439 9.83734C30.4221 9.7108 30.464 9.58166 30.5559 9.49198L32.3276 7.76359L29.8776 7.40768C29.7505 7.38922 29.6406 7.3094 29.5838 7.19422L28.4876 4.97373L27.3918 7.19422C27.3349 7.3094 27.225 7.38922 27.0979 7.40768L24.6472 7.76359L26.4204 9.49198C26.5123 9.58166 26.5542 9.7108 26.5324 9.83734L26.1141 12.2783L28.3057 11.1259C28.4195 11.066 28.5556 11.066 28.6694 11.1259L30.8622 12.2779L30.4439 9.83734Z" fill="#3A2C60"/>
<path fill-rule="evenodd" clip-rule="evenodd" d="M43.1807 7.02095C43.4369 7.05693 43.6499 7.23629 43.729 7.48261C43.8099 7.72842 43.7429 7.99888 43.5565 8.17842L41.7824 9.90759L42.2016 12.3501C42.245 12.6046 42.1402 12.8617 41.9313 13.0134C41.7224 13.1651 41.4455 13.1851 41.217 13.065L39.0242 11.9123L36.8314 13.065C36.6029 13.1861 36.3254 13.1665 36.1162 13.0146C35.9069 12.8627 35.8024 12.6049 35.8468 12.3501L36.2656 9.90759L34.4911 8.17802C34.3061 7.99779 34.2395 7.72813 34.3194 7.4825C34.3992 7.23687 34.6117 7.05792 34.8673 7.02095L37.3192 6.66466L38.4162 4.443C38.5302 4.21125 38.7661 4.06445 39.0244 4.06445C39.2827 4.06445 39.5185 4.21125 39.6326 4.443L40.7292 6.66466L43.1807 7.02095ZM40.9789 9.83734C40.9572 9.7108 40.999 9.58166 41.0909 9.49198L42.8642 7.76359L40.4142 7.40768C40.2871 7.38922 40.1772 7.3094 40.1204 7.19422L39.0242 4.97373L37.9284 7.19422C37.8715 7.3094 37.7616 7.38922 37.6345 7.40768L35.1838 7.76359L36.9571 9.49198C37.0489 9.58166 37.0908 9.7108 37.0691 9.83734L36.6507 12.2783L38.8423 11.1259C38.9562 11.066 39.0922 11.066 39.206 11.1259L41.3973 12.2779L40.9789 9.83734Z" fill="#3A2C60"/>
<path fill-rule="evenodd" clip-rule="evenodd" d="M17.2703 0.0292969H42.9792C44.8674 0.0316624 46.3975 1.56192 46.3996 3.45017V14.4141C46.3996 16.2127 44.9366 18.2244 42.9792 18.2244H26.5421L26.105 18.832C32.6538 20.3031 37.0489 26.4636 36.3088 33.1347C35.5688 39.8058 29.9304 44.8533 23.2184 44.8533C16.5064 44.8533 10.868 39.8058 10.1279 33.1347C9.3879 26.4636 13.7829 20.3031 20.3317 18.832L19.8966 18.2229H3.45955C1.50209 18.2229 0.0390625 16.2112 0.0390625 14.4125V3.45017C0.0412131 1.56177 1.57153 0.0314474 3.45994 0.0292969H10.2057C10.4212 0.0292969 10.5959 0.204015 10.5959 0.419541C10.5959 0.635067 10.4212 0.809785 10.2057 0.809785H3.45994C2.00256 0.81172 0.82166 1.99279 0.819941 3.45017V14.4141C0.819941 15.8154 1.97311 17.4439 3.45994 17.4439H20.0976C20.2233 17.4435 20.3416 17.5036 20.4153 17.6055L23.2196 21.5255L26.0242 17.6055C26.0975 17.5031 26.2156 17.4424 26.3415 17.4424H42.9792C44.4656 17.4424 45.6192 15.8139 45.6192 14.4125V3.45017C45.6174 1.99279 44.4365 0.81172 42.9792 0.809785H17.2703C17.0548 0.809785 16.88 0.635067 16.88 0.419541C16.88 0.204015 17.0548 0.0292969 17.2703 0.0292969ZM15.9505 38.4566V41.7027C20.2833 44.8569 26.1558 44.8569 30.4886 41.7027V38.4566C30.4855 36.3749 28.8743 34.6494 26.7977 34.5038C24.697 36.1522 21.7421 36.1522 19.6414 34.5038C17.5648 34.6494 15.9536 36.3749 15.9505 38.4566ZM23.2196 34.9596C21.1759 34.9598 19.3335 33.7289 18.5513 31.8408C17.7692 29.9528 18.2015 27.7796 19.6465 26.3345C21.0916 24.8895 23.2648 24.4572 25.1528 25.2393C27.0409 26.0215 28.2718 27.8639 28.2716 29.9075C28.2686 32.6965 26.0085 34.9566 23.2196 34.9596ZM31.2691 41.0857C34.0235 38.7365 35.6099 35.2982 35.6098 31.6781C35.6009 25.761 31.4157 20.6733 25.6114 19.5235L23.5372 22.4234C23.4639 22.5259 23.3457 22.5867 23.2197 22.5867C23.0938 22.5867 22.9755 22.5259 22.9023 22.4234L20.8277 19.5235C16.167 20.4365 12.4395 23.9356 11.2339 28.5294C10.0284 33.1232 11.5574 38.0017 15.1692 41.0857V38.4566C15.1727 36.2257 16.7275 34.2976 18.907 33.8213C16.7855 31.492 16.8974 27.8989 19.1596 25.706C21.4218 23.5131 25.0166 23.5131 27.2788 25.706C29.541 27.8989 29.6528 31.492 27.5314 33.8213C29.7108 34.2976 31.2656 36.2257 31.2691 38.4566V41.0857Z" fill="#3A2C60"/>
<path d="M11.8277 0.809785H15.578C15.7935 0.809785 15.9682 0.635067 15.9682 0.419541C15.9682 0.204015 15.7935 0.0292969 15.578 0.0292969H11.8277C11.6122 0.0292969 11.4375 0.204015 11.4375 0.419541C11.4375 0.635067 11.6122 0.809785 11.8277 0.809785Z" fill="#3A2C60"/>
</svg>
