<svg width="48" height="48" viewBox="0 0 48 48" fill="none" xmlns="http://www.w3.org/2000/svg">
<path d="M45.4289 20.5908H37.4841C36.5487 20.5919 35.7906 21.3499 35.7896 22.2853V26.5027C35.7904 27.4383 36.5485 28.1965 37.4841 28.1976H39.0372V29.6884C39.0371 29.8416 39.1269 29.9806 39.2666 30.0436C39.4063 30.1067 39.57 30.082 39.6849 29.9805L41.7018 28.1984H45.4301C46.3655 28.1967 47.1231 27.4382 47.1238 26.5027V22.2853C47.1225 21.3499 46.3644 20.5919 45.4289 20.5908V20.5908Z" fill="#E6E7E8"/>
<path d="M8.99616 29.9805C9.11094 30.0822 9.2747 30.107 9.41447 30.044C9.55425 29.9809 9.64403 29.8418 9.64382 29.6884V28.1984H11.1966C12.1331 28.1982 12.8924 27.4392 12.893 26.5027V22.2853C12.8919 21.3498 12.1337 20.5917 11.1981 20.5908H3.25329C2.31743 20.5912 1.55869 21.3495 1.55762 22.2853V26.5027C1.55869 27.4383 2.31689 28.1965 3.25251 28.1976H6.98113L8.99616 29.9805Z" fill="#E6E7E8"/>
<path d="M39.6022 40.9655V37.3592C39.5947 31.1306 34.7176 25.9954 28.4977 25.667C29.3148 25.252 30.0655 24.7175 30.725 24.0812C32.0111 22.8469 32.9073 21.2627 33.3028 19.5246C33.4203 19.5569 33.5416 19.5734 33.6634 19.5736C34.618 19.5736 35.3653 18.5887 35.3653 17.3316C35.3662 17.0405 35.3237 16.7509 35.2391 16.4724V12.6017C35.2625 8.69244 33.1904 5.07013 29.8087 3.10874C26.4271 1.14735 22.2539 1.14735 18.8723 3.10874C15.4906 5.07013 13.4185 8.69244 13.4419 12.6017V16.4732C13.3578 16.751 13.3154 17.0398 13.3161 17.33C13.3161 18.5872 14.0634 19.5721 15.018 19.5721C15.1548 19.5714 15.2907 19.55 15.4211 19.5086C16.0778 22.1583 17.8399 24.3989 20.26 25.662C14.0081 25.9512 9.08606 31.1006 9.07923 37.3592V40.9655C7.23565 41.1775 5.87685 42.7898 5.98012 44.6427C6.0834 46.4955 7.61296 47.9468 9.46868 47.9526H39.2127C41.0684 47.9468 42.598 46.4955 42.7013 44.6427C42.8045 42.7898 41.4457 41.1775 39.6022 40.9655V40.9655Z" fill="#E6E7E8"/>
<path d="M7.91113 46.0057V35.8021C7.91093 32.8002 9.10325 29.9213 11.2258 27.7986C13.3483 25.6759 16.2272 24.4834 19.229 24.4834H26.3361C29.3379 24.4833 32.2168 25.6757 34.3395 27.7983C36.4621 29.9209 37.6545 32.7998 37.6544 35.8017V46.0053L7.91113 46.0057Z" fill="#FCF055"/>
<path d="M19.3275 25.2861V24.4834H19.229C16.2273 24.4834 13.3484 25.6759 11.2259 27.7985C9.1034 29.9211 7.91103 32.7999 7.91113 35.8017V36.97C7.91103 33.9683 9.1034 31.0894 11.2259 28.9668C13.3484 26.8442 16.2273 25.6518 19.229 25.6518H19.3458C19.3332 25.5303 19.3271 25.4082 19.3275 25.2861V25.2861Z" fill="white"/>
<path d="M26.3363 24.4834H26.2381V25.2861C26.238 25.4082 26.2314 25.5303 26.2183 25.6518H26.3351C29.3369 25.6517 32.2158 26.8441 34.3384 28.9667C36.461 31.0893 37.6535 33.9682 37.6534 36.97V35.8017C37.6536 29.5511 32.5868 24.4838 26.3363 24.4834V24.4834Z" fill="white"/>
<path d="M20.8605 28.1569H24.7048C25.6635 27.5161 26.2387 26.4389 26.2381 25.2859V24.0268C25.1624 24.4799 24.0066 24.7126 22.8393 24.711H22.7264C21.5591 24.7125 20.4033 24.4797 19.3276 24.0264V25.2855C19.3269 26.4386 19.902 27.5159 20.8605 28.1569V28.1569Z" fill="white"/>
<path d="M22.7828 0.53418C16.9787 0.534395 12.2737 5.23947 12.2734 11.0436V14.9942C12.4826 14.3621 12.9332 13.9228 13.4601 13.9228C13.6434 13.9244 13.8227 13.9767 13.9781 14.0739V12.6084C13.9755 10.6295 14.7553 8.72991 16.1473 7.3235C16.9515 6.53258 18.1361 6.269 19.1998 6.6443C20.3613 6.99431 21.5699 7.16259 22.7828 7.14319C23.9957 7.16259 25.2043 6.99431 26.3658 6.6443C27.4289 6.26982 28.6125 6.53334 29.4163 7.3235C30.8084 8.72991 31.5881 10.6295 31.5856 12.6084V14.0723C31.7417 13.9753 31.9217 13.9235 32.1055 13.9228C32.6321 13.9228 33.083 14.3636 33.2922 14.9957V11.0436C33.292 5.23947 28.5869 0.534395 22.7828 0.53418V0.53418Z" fill="#0F1049"/>
<path d="M32.1055 13.9229C31.9222 13.9244 31.7429 13.9767 31.5875 14.074V15.9079C31.587 16.4016 31.5453 16.8944 31.4629 17.3812C31.6424 17.5347 31.8693 17.6218 32.1055 17.6277C32.8303 17.6277 33.4176 16.7986 33.4176 15.7755C33.4176 14.7524 32.8306 13.9229 32.1055 13.9229V13.9229Z" fill="white"/>
<path d="M13.978 15.6952V14.0724C13.8224 13.9757 13.6432 13.924 13.46 13.9229C12.7352 13.9229 12.1479 14.752 12.1479 15.7755C12.1479 16.799 12.7352 17.6277 13.46 17.6277C13.7088 17.6214 13.947 17.5261 14.1314 17.359C14.0297 16.8102 13.9784 16.2533 13.978 15.6952V15.6952Z" fill="white"/>
<path d="M29.4183 7.32355C28.6144 6.53339 27.4308 6.26986 26.3677 6.64434C25.2056 6.99455 23.9963 7.16284 22.7828 7.14323C21.5699 7.16264 20.3613 6.99435 19.1998 6.64434C18.1367 6.26986 16.9531 6.53339 16.1492 7.32355C14.7571 8.73007 13.9774 10.6298 13.98 12.6088V15.6952C13.98 20.4695 17.6922 24.5358 22.4638 24.7056C24.8528 24.7921 27.1742 23.9035 28.8949 22.244C30.6155 20.5846 31.5875 18.2968 31.5875 15.9063V12.6088C31.5901 10.6298 30.8104 8.73007 29.4183 7.32355V7.32355Z" fill="white"/>
<path d="M17.276 11.1191H20.7328C21.4806 11.1191 22.0869 11.7254 22.0869 12.4733V14.4439C22.0869 15.7108 21.0599 16.7378 19.793 16.7378H17.5942C16.3273 16.7378 15.3003 15.7108 15.3003 14.4439V13.0941C15.3009 12.0033 16.1852 11.1194 17.276 11.1191V11.1191Z" fill="white"/>
<path d="M27.9718 16.7352H25.773C24.5061 16.7352 23.4791 15.7082 23.4791 14.4413V12.0076C23.4791 11.5157 23.8779 11.1169 24.3698 11.1169H28.29C29.3814 11.1169 30.2661 12.0016 30.2661 13.093V14.4425C30.2661 15.7093 29.2391 16.7363 27.9722 16.7363L27.9718 16.7352Z" fill="white"/>
<path d="M43.8715 19.4219H35.9266C35.5804 19.4219 35.2484 19.5594 35.0037 19.8043C34.7589 20.0491 34.6215 20.3811 34.6216 20.7273V24.9447C34.6215 25.2909 34.7589 25.6229 35.0037 25.8678C35.2484 26.1126 35.5804 26.2501 35.9266 26.2501H37.8692V28.1304L39.9968 26.2509H43.873C44.5935 26.2498 45.177 25.6652 45.1765 24.9447V20.7273C45.1765 20.0065 44.5923 19.4221 43.8715 19.4219V19.4219Z" fill="#EB9138"/>
<path d="M38.8239 24.49C38.8782 24.5411 38.9067 24.6139 38.9018 24.6883C38.9066 24.7616 38.8779 24.8332 38.8239 24.883C38.7717 24.9288 38.7041 24.9531 38.6346 24.9511H38.2654C38.0957 24.9682 37.9272 24.908 37.8068 24.7872C37.6863 24.6663 37.6267 24.4977 37.6443 24.328V23.5156C37.6517 23.423 37.6295 23.3303 37.5808 23.2512C37.5248 23.1904 37.4461 23.1557 37.3635 23.1554C37.2904 23.1546 37.2205 23.1252 37.1687 23.0736C37.1215 23.02 37.0972 22.9501 37.101 22.8789C37.0986 22.8108 37.1229 22.7446 37.1687 22.6943C37.2206 22.6429 37.2904 22.6136 37.3635 22.6125C37.4464 22.6131 37.5257 22.5787 37.5819 22.5178C37.6307 22.4387 37.6529 22.346 37.6454 22.2534V21.4355C37.6278 21.2658 37.6875 21.0972 37.808 20.9764C37.9284 20.8556 38.0968 20.7954 38.2666 20.8124H38.6358C38.7051 20.8105 38.7726 20.8345 38.8251 20.8798C38.8789 20.9298 38.9074 21.0012 38.903 21.0745C38.908 21.1492 38.8794 21.2221 38.8251 21.2735C38.7726 21.3189 38.7051 21.3431 38.6358 21.3413H38.5283C38.4762 21.337 38.4244 21.3528 38.3834 21.3853C38.3479 21.429 38.3311 21.485 38.3367 21.5411V22.3356C38.3401 22.4654 38.2989 22.5924 38.2199 22.6954C38.1534 22.7874 38.057 22.8535 37.9472 22.8824C38.057 22.9112 38.1534 22.9773 38.2199 23.0693C38.2989 23.1722 38.3401 23.2991 38.3367 23.4288V24.219C38.3309 24.275 38.3478 24.3311 38.3834 24.3747C38.4242 24.4076 38.4761 24.4235 38.5283 24.4191H38.6358C38.7052 24.4181 38.7724 24.4435 38.8239 24.49V24.49Z" fill="white"/>
<path fill-rule="evenodd" clip-rule="evenodd" d="M39.6422 21.8824C39.4542 22.0447 39.4542 22.2946 39.6422 22.4569C39.8424 22.6096 40.1582 22.6096 40.3584 22.4569C40.5464 22.2946 40.5464 22.0447 40.3584 21.8824C40.1584 21.7293 39.8422 21.7293 39.6422 21.8824ZM40.4993 23.8519C40.5109 23.7143 40.461 23.5778 40.3584 23.4667C40.2656 23.3782 40.1264 23.329 39.9817 23.3335C39.8524 23.3315 39.728 23.3731 39.6392 23.448C39.5469 23.5255 39.4972 23.6291 39.5013 23.7358C39.4969 23.8325 39.5413 23.9266 39.6246 23.9971C39.71 24.0669 39.8253 24.1086 39.9475 24.114C39.9021 24.2483 39.813 24.3707 39.6891 24.4688C39.6475 24.5005 39.6242 24.5444 39.6246 24.5903C39.6242 24.6397 39.651 24.6868 39.698 24.7192C39.7448 24.7542 39.8069 24.7734 39.8711 24.7729C39.9432 24.771 40.0111 24.7457 40.059 24.7028C40.3432 24.4777 40.5018 24.1711 40.4993 23.8519Z" fill="white"/>
<path d="M42.6267 22.6956C42.6726 22.7458 42.697 22.8121 42.6944 22.8802C42.6982 22.9515 42.6739 23.0214 42.6267 23.0749C42.5749 23.1266 42.505 23.156 42.4319 23.1567C42.3493 23.157 42.2706 23.1918 42.2146 23.2525C42.1661 23.3317 42.144 23.4243 42.1515 23.517L42.1469 24.3301C42.157 24.4987 42.0979 24.6641 41.9833 24.7881C41.8609 24.9023 41.6971 24.9614 41.53 24.9517H41.1561C41.0882 24.9531 41.0222 24.9288 40.9715 24.8835C40.9176 24.8336 40.889 24.7621 40.8936 24.6888C40.8888 24.6144 40.9174 24.5418 40.9715 24.4906C41.0222 24.4454 41.0882 24.4212 41.1561 24.4228H41.2683C41.3205 24.4272 41.3723 24.4113 41.4131 24.3784C41.4488 24.3348 41.4656 24.2787 41.4599 24.2226V23.4313C41.4565 23.3016 41.4977 23.1747 41.5767 23.0718C41.6432 22.9798 41.7395 22.9138 41.8493 22.8849C41.7395 22.856 41.6432 22.7899 41.5767 22.6979C41.4977 22.5949 41.4565 22.4679 41.4599 22.3381V21.5436C41.4655 21.4875 41.4487 21.4315 41.4131 21.3878C41.3722 21.3553 41.3204 21.3396 41.2683 21.3438H41.1561C41.0883 21.345 41.0224 21.3208 40.9715 21.276C40.9173 21.2245 40.8888 21.1516 40.8936 21.077C40.8893 21.0038 40.9179 20.9324 40.9715 20.8823C41.0225 20.8377 41.0883 20.8137 41.1561 20.8149H41.53C41.699 20.7992 41.8662 20.8601 41.9857 20.9807C42.1051 21.1014 42.1642 21.2692 42.1469 21.4381V22.2559C42.1393 22.3485 42.1614 22.4411 42.2099 22.5203C42.2673 22.5819 42.3478 22.6167 42.4319 22.6161C42.5046 22.6166 42.5744 22.6451 42.6267 22.6956Z" fill="white"/>
<path d="M1.6947 19.4219H9.63953C10.3605 19.4219 10.945 20.0063 10.945 20.7273V24.9447C10.945 25.6657 10.3605 26.2501 9.63953 26.2501H7.6985V28.1304L5.56936 26.2509H1.6947C1.34841 26.2508 1.01635 26.1131 0.771591 25.8682C0.526835 25.6232 0.389442 25.291 0.389649 24.9447V20.7273C0.389649 20.0065 0.973879 19.4221 1.6947 19.4219V19.4219Z" fill="#EB9138"/>
<path d="M4.27756 23.8075C4.30081 23.8429 4.31301 23.8844 4.31261 23.9267C4.31495 23.9956 4.28874 24.0624 4.24018 24.1113C4.19272 24.1592 4.12764 24.1854 4.06025 24.1837C4.01524 24.1828 3.97083 24.1733 3.92939 24.1557L2.27967 23.4827C2.20615 23.452 2.14292 23.4009 2.09741 23.3355C2.03004 23.2367 2.01147 23.1125 2.04697 22.9983C2.08246 22.884 2.16815 22.7922 2.27967 22.749L3.92939 22.076C3.97224 22.0581 4.01811 22.0486 4.06453 22.048C4.13098 22.0458 4.19537 22.0712 4.24251 22.1181C4.28997 22.1666 4.31533 22.2325 4.31261 22.3003C4.31554 22.3896 4.2609 22.4706 4.17709 22.5013L2.64848 23.1139L4.1767 23.7261C4.21775 23.7425 4.25291 23.7708 4.27756 23.8075V23.8075Z" fill="white"/>
<path fill-rule="evenodd" clip-rule="evenodd" d="M5.41516 23.1791C5.41174 23.2464 5.43245 23.3127 5.47358 23.366C5.51362 23.4124 5.57284 23.4377 5.63403 23.4346C5.68592 23.436 5.73657 23.4186 5.77657 23.3855C5.81756 23.3498 5.84506 23.3012 5.85446 23.2477C5.86994 23.1575 5.90859 23.073 5.96662 23.0023C6.049 22.9054 6.13801 22.8143 6.23301 22.7297C6.33894 22.6269 6.42306 22.5404 6.48537 22.4703C6.55057 22.3958 6.60486 22.3124 6.64661 22.2226C6.6926 22.1239 6.71576 22.0161 6.71437 21.9072C6.71582 21.7621 6.67078 21.6205 6.58585 21.5029C6.49376 21.3778 6.36937 21.28 6.226 21.2202C6.06149 21.1495 5.88391 21.1145 5.70491 21.1173C5.5212 21.1178 5.33882 21.1486 5.16513 21.2085C4.99343 21.2652 4.83291 21.3514 4.69078 21.4632C4.65139 21.4926 4.61872 21.53 4.59497 21.573C4.57352 21.6174 4.5631 21.6663 4.56459 21.7155C4.56262 21.7906 4.58655 21.864 4.63236 21.9235C4.67042 21.9775 4.73223 22.0097 4.79827 22.01C4.87798 22.0035 4.95495 21.9779 5.02259 21.9352C5.16591 21.8511 5.28041 21.7888 5.36609 21.7483C5.45307 21.7075 5.54809 21.6867 5.64416 21.6875C5.73702 21.6827 5.82869 21.7102 5.90353 21.7654C5.96673 21.8155 6.00231 21.8927 5.99934 21.9734C6.00057 22.0498 5.98033 22.1251 5.94092 22.1907C5.88592 22.2757 5.82419 22.3562 5.75632 22.4314C5.65901 22.5387 5.57361 22.6562 5.50162 22.7819C5.43982 22.9049 5.41008 23.0415 5.41516 23.1791ZM5.35908 23.7937C5.20961 23.9561 5.20961 24.206 5.35908 24.3685C5.4339 24.4449 5.53729 24.4864 5.64416 24.483C5.74953 24.4858 5.85124 24.4442 5.92456 24.3685C6.07403 24.206 6.07403 23.9561 5.92456 23.7937C5.85124 23.7179 5.74953 23.6764 5.64416 23.6792C5.53729 23.6758 5.4339 23.7173 5.35908 23.7937Z" fill="white"/>
<path d="M9.23823 22.8939C9.32545 23.0282 9.32545 23.2012 9.23823 23.3355C9.19247 23.4008 9.12914 23.4519 9.05558 23.4827L7.40624 24.1557C7.36478 24.1732 7.32038 24.1827 7.27539 24.1837C7.20798 24.1855 7.14284 24.1593 7.09546 24.1113C7.04664 24.0625 7.02026 23.9957 7.02263 23.9267C7.02224 23.8844 7.03444 23.8429 7.05768 23.8075C7.08237 23.7709 7.11733 23.7425 7.15816 23.7257L8.68676 23.1139L7.15816 22.5013C7.07435 22.4706 7.0197 22.3896 7.02263 22.3003C7.0201 22.2326 7.04543 22.1667 7.09274 22.1181C7.13974 22.0712 7.204 22.0459 7.27033 22.048C7.317 22.0486 7.36313 22.0581 7.40624 22.076L9.05558 22.749C9.1299 22.7774 9.19368 22.828 9.23823 22.8939V22.8939Z" fill="white"/>
<path d="M34.5999 43.5003C34.4745 42.8756 34.5443 42.2275 34.7997 41.6438V29.7141C34.7997 28.8537 34.1023 28.1562 33.2419 28.1562H12.3244C11.4641 28.1562 10.7666 28.8537 10.7666 29.7141V41.6438C11.022 42.2275 11.0918 42.8756 10.9664 43.5003H34.5999Z" fill="#0F1049"/>
<path d="M12.4624 43.5006V31.7727C12.4624 30.9123 13.1599 30.2148 14.0202 30.2148H31.5456C32.4059 30.2148 33.1034 30.9123 33.1034 31.7727V43.5006H12.4624Z" fill="#D4FBFF"/>
<path d="M20.3736 39.1405V39.1541C20.3742 39.4254 20.238 39.6787 20.0114 39.8279C19.7848 39.977 19.4982 40.0019 19.2493 39.8941L14.7157 37.9278C14.2936 37.7447 14.0205 37.3285 14.0205 36.8684V36.856C14.0205 36.3959 14.2936 35.9798 14.7157 35.7967L19.2493 33.8319C19.4982 33.7241 19.7848 33.749 20.0114 33.8981C20.238 34.0473 20.3742 34.3006 20.3736 34.5718V34.594C20.3728 34.926 20.1682 35.2233 19.8584 35.3426L15.9467 36.8498L19.8623 38.392C20.1705 38.5125 20.3735 38.8096 20.3736 39.1405V39.1405Z" fill="#FA759E"/>
<path d="M23.9556 32.0172C23.5542 31.9202 23.1503 32.1669 23.0532 32.5682L21.0596 40.8052C20.9629 41.2063 21.2093 41.6101 21.6103 41.7075C21.6681 41.7214 21.7273 41.7285 21.7867 41.7286C22.132 41.7293 22.4325 41.4927 22.5126 41.1568L24.5062 32.9195C24.6025 32.5184 24.3563 32.115 23.9556 32.0172V32.0172Z" fill="#FA759E"/>
<path d="M30.8519 37.9133L26.3179 39.8874C26.0692 39.9955 25.7828 39.9712 25.556 39.8225C25.3291 39.6739 25.1925 39.421 25.1924 39.1498V39.1385C25.1922 38.807 25.3951 38.5093 25.7037 38.3884L29.6329 36.8458L25.7072 35.3269C25.3973 35.207 25.193 34.9088 25.1932 34.5764C25.1926 34.3054 25.3286 34.0523 25.5549 33.9032C25.7813 33.754 26.0675 33.729 26.3163 33.8365L30.8484 35.7935C31.2715 35.9761 31.5455 36.3927 31.5455 36.8536C31.5459 37.3134 31.2735 37.7296 30.8519 37.9133V37.9133Z" fill="#FA759E"/>
<path d="M34.5999 43.501H10.9664C10.7645 44.5058 10.0821 45.3474 9.14062 45.7524C9.39233 45.9174 9.68671 46.0054 9.98768 46.0055H35.5786C35.8794 46.0054 36.1737 45.9174 36.4253 45.7524C35.484 45.3472 34.8017 44.5057 34.5999 43.501Z" fill="#0F1049"/>
<circle cx="7.91152" cy="42.89" r="3.11562" fill="white"/>
<circle cx="37.6547" cy="42.89" r="3.11562" fill="white"/>
<path d="M18.8985 13.7939C18.5424 13.7938 18.2212 14.0082 18.0847 14.3373C17.9483 14.6663 18.0236 15.0451 18.2754 15.297C18.5272 15.5489 18.906 15.6243 19.235 15.4881C19.5641 15.3518 19.7787 15.0307 19.7787 14.6745C19.7787 14.1883 19.3847 13.7942 18.8985 13.7939V13.7939Z" fill="#3A2C60"/>
<path d="M26.6672 13.7939C26.1809 13.7939 25.7866 14.1882 25.7866 14.6745C25.7866 15.1608 26.1809 15.555 26.6672 15.555C27.1535 15.555 27.5477 15.1608 27.5477 14.6745C27.5477 14.1882 27.1535 13.7939 26.6672 13.7939V13.7939Z" fill="#3A2C60"/>
<path d="M22.7828 18.9827C23.5507 18.9819 24.1729 18.3595 24.1736 17.5916V17.0047C24.1736 16.7896 23.9992 16.6152 23.7841 16.6152C23.569 16.6152 23.3947 16.7896 23.3947 17.0047V17.5916C23.3947 17.9295 23.1207 18.2034 22.7828 18.2034C22.4449 18.2034 22.171 17.9295 22.171 17.5916V17.0047C22.171 16.7896 21.9966 16.6152 21.7815 16.6152C21.5665 16.6152 21.3921 16.7896 21.3921 17.0047V17.5916C21.3927 18.3595 22.0149 18.9819 22.7828 18.9827V18.9827Z" fill="#3A2C60"/>
<path d="M27.8551 12.5014L26.1322 12.2011C25.9942 12.175 25.8528 12.2253 25.7623 12.3326C25.6717 12.4399 25.6459 12.5876 25.6947 12.7193C25.7436 12.8509 25.8595 12.9461 25.9982 12.9683L27.7223 13.2686C27.7445 13.2725 27.7671 13.2744 27.7897 13.2744C27.9915 13.2739 28.1595 13.1193 28.1767 12.9182C28.1939 12.7171 28.0547 12.5362 27.8559 12.5014H27.8551Z" fill="#3A2C60"/>
<path d="M19.4338 12.2015L17.7097 12.5017C17.5699 12.5227 17.4525 12.6176 17.4028 12.7499C17.3531 12.8822 17.379 13.031 17.4703 13.1387C17.5617 13.2465 17.7042 13.2963 17.8429 13.2689L19.5673 12.9687C19.7066 12.9472 19.8234 12.8521 19.8727 12.7201C19.922 12.5881 19.8962 12.4398 19.8051 12.3322C19.7141 12.2247 19.5721 12.1747 19.4338 12.2015V12.2015Z" fill="#3A2C60"/>
<path d="M25.0447 20.2282C25.1746 20.0568 25.141 19.8125 24.9695 19.6826C24.7981 19.5527 24.5538 19.5863 24.4239 19.7578C24.0118 20.2337 23.4127 20.5064 22.7832 20.5047C22.1543 20.5169 21.5535 20.2451 21.1475 19.7648C21.0195 19.5955 20.7796 19.5598 20.6079 19.6845C20.4362 19.8091 20.3959 20.0483 20.5173 20.2224C21.0707 20.9039 21.9054 21.2948 22.7832 21.2836C23.656 21.2836 24.484 20.8971 25.0447 20.2282V20.2282Z" fill="#3A2C60"/>
<path fill-rule="evenodd" clip-rule="evenodd" d="M35.9264 19.0322H43.8713C44.8067 19.0333 45.5649 19.7913 45.5662 20.7267V24.9441C45.5655 25.8796 44.8079 26.6381 43.8724 26.6398H40.1442L38.1272 28.4219C38.0124 28.5234 37.8487 28.5481 37.709 28.485C37.5693 28.422 37.4795 28.283 37.4796 28.1298V26.639H35.9264C34.9909 26.6379 34.2328 25.8797 34.2319 24.9441V20.7267C34.233 19.7913 34.991 19.0333 35.9264 19.0322ZM43.8709 25.8601C44.3767 25.8597 44.7866 25.4499 44.7873 24.9441L44.7865 20.7267C44.7856 20.2211 44.3757 19.8116 43.8701 19.8111H35.9253C35.4198 19.8116 35.0101 20.2212 35.0097 20.7267V24.9441C35.0097 25.45 35.4194 25.8602 35.9253 25.8609H37.8698C38.0849 25.8609 38.2593 26.0352 38.2593 26.2503V27.2656L39.7392 25.9575C39.8104 25.8947 39.9021 25.8601 39.997 25.8601H43.8709Z" fill="#3A2C60"/>
<path fill-rule="evenodd" clip-rule="evenodd" d="M7.85686 28.4854C7.71708 28.5484 7.55333 28.5236 7.43854 28.4219L5.42351 26.639H1.6949C0.759276 26.6379 0.00107308 25.8797 0 24.9441V20.7267C0.00107308 19.7913 0.759102 19.0333 1.69451 19.0322H9.6405C10.5761 19.0331 11.3343 19.7912 11.3354 20.7267V24.9441C11.3348 25.8806 10.5755 26.6396 9.63895 26.6398H8.0862V28.1298C8.08641 28.2832 7.99663 28.4224 7.85686 28.4854ZM0.778905 20.7267V24.9441C0.779548 25.4496 1.18904 25.8592 1.69451 25.8601H5.57112C5.66605 25.8601 5.75773 25.8947 5.82893 25.9575L7.30885 27.2656V26.2496C7.30885 26.0345 7.48322 25.8601 7.6983 25.8601H9.63933C10.145 25.8595 10.5547 25.4497 10.5553 24.9441V20.7267C10.5547 20.2212 10.1449 19.8116 9.63933 19.8111H1.69451C1.1891 19.8118 0.779548 20.2213 0.778905 20.7267Z" fill="#3A2C60"/>
<path d="M12.4627 39.6101C12.6778 39.6101 12.8521 39.4358 12.8521 39.2207V36.6893C12.8521 36.4742 12.6778 36.2998 12.4627 36.2998C12.2476 36.2998 12.0732 36.4742 12.0732 36.6893V39.2207C12.0732 39.4358 12.2476 39.6101 12.4627 39.6101Z" fill="#3A2C60"/>
<path fill-rule="evenodd" clip-rule="evenodd" d="M19.0941 40.2496L14.5609 38.2848V38.2832C13.9959 38.0358 13.6309 37.4774 13.6309 36.8606C13.6309 36.2437 13.9959 35.6853 14.5609 35.4379L19.0941 33.4731C19.4634 33.3134 19.8882 33.3504 20.2242 33.5714C20.5603 33.7925 20.7625 34.1679 20.7622 34.5702C20.7675 35.0707 20.4634 35.5226 19.9977 35.7062L17.0191 36.8535L20.0062 38.0297C20.4639 38.2078 20.7646 38.6493 20.7629 39.1404V39.1544C20.7628 39.5566 20.5602 39.9316 20.224 40.1522C19.8878 40.3729 19.4631 40.4095 19.0941 40.2496ZM19.4057 34.1893L14.8725 36.1537H14.8705C14.5903 36.2778 14.4097 36.5555 14.4097 36.8619C14.4097 37.1684 14.5903 37.446 14.8705 37.5701L19.4037 39.5349C19.532 39.5905 19.6796 39.5778 19.7965 39.5012C19.9134 39.4245 19.9839 39.2942 19.984 39.1544V39.1404C19.9847 38.9697 19.8802 38.8161 19.7211 38.7541L15.804 37.2118C15.655 37.1525 15.5576 37.0078 15.5588 36.8473C15.5599 36.6869 15.6593 36.5436 15.8091 36.4863L19.7208 34.9791C19.8669 34.9179 19.9679 34.7817 19.9841 34.6241C20.0004 34.4664 19.9292 34.3125 19.7986 34.2228C19.7314 34.1783 19.6526 34.1544 19.572 34.1543C19.5147 34.1545 19.4582 34.1664 19.4057 34.1893Z" fill="#3A2C60"/>
<path fill-rule="evenodd" clip-rule="evenodd" d="M21.962 42.1048C21.5077 42.1759 21.0553 41.9663 20.8158 41.5738C20.6569 41.3167 20.6079 41.0066 20.6799 40.7131L22.6762 32.4766C22.7713 32.0812 23.0702 31.7668 23.4602 31.6519C23.8502 31.5369 24.2719 31.639 24.5661 31.9197C24.8604 32.2003 24.9823 32.6167 24.886 33.0117L22.8912 41.249C22.7831 41.6959 22.4164 42.0337 21.962 42.1048ZM23.4325 32.6604L21.4389 40.8977L21.4382 40.8969C21.4155 40.9894 21.4309 41.087 21.481 41.168C21.5305 41.2492 21.6102 41.3075 21.7026 41.33C21.8943 41.3734 22.0858 41.2564 22.1345 41.0659L24.1281 32.8286C24.1743 32.6364 24.0562 32.443 23.8641 32.3963C23.8364 32.3897 23.808 32.3863 23.7795 32.3862C23.7144 32.3861 23.6504 32.4042 23.5949 32.4384C23.5133 32.4877 23.4548 32.5676 23.4325 32.6604Z" fill="#3A2C60"/>
<path fill-rule="evenodd" clip-rule="evenodd" d="M28.5597 36.8485L25.566 35.6903C25.1614 35.5356 24.8723 35.1739 24.8106 34.7451C24.7488 34.3164 24.9241 33.8878 25.2687 33.6252C25.6132 33.3627 26.0729 33.3073 26.4699 33.4805L31.0036 35.4359C31.5687 35.6796 31.9351 36.2356 31.9361 36.851C31.9372 37.4665 31.5726 38.0237 31.0082 38.2692L26.4746 40.2433C26.0772 40.4135 25.619 40.3565 25.2753 40.0943C24.9317 39.8321 24.7557 39.4051 24.8149 38.9769C24.874 38.5487 25.1591 38.1855 25.561 38.0262L28.5597 36.8485ZM25.9956 34.1605C25.9149 34.1608 25.836 34.1849 25.7689 34.2298C25.6521 34.3062 25.5825 34.4369 25.5843 34.5764C25.5834 34.7481 25.6891 34.9024 25.8495 34.9635L29.7748 36.4824C29.9245 36.5406 30.0231 36.6848 30.0231 36.8454C30.0231 37.006 29.9245 37.1501 29.7748 37.2083L25.8453 38.751C25.7005 38.8105 25.6003 38.9449 25.5845 39.1007C25.5687 39.2564 25.6399 39.4082 25.7697 39.4956C25.8864 39.5736 26.0349 39.5862 26.1631 39.5291L30.6967 37.555C30.9764 37.4333 31.157 37.1571 31.1564 36.8521C31.1559 36.5471 30.9741 36.2716 30.6939 36.151L26.1611 34.1955C26.1089 34.1726 26.0526 34.1607 25.9956 34.1605Z" fill="#3A2C60"/>
<path fill-rule="evenodd" clip-rule="evenodd" d="M38.0446 39.4079V35.8015C38.0371 29.573 33.16 24.4378 26.9401 24.1094C27.7572 23.6943 28.5078 23.1599 29.1674 22.5235C30.4536 21.2893 31.35 19.7052 31.7455 17.967C31.8628 18.0002 31.984 18.0172 32.1058 18.0176C33.0603 18.0176 33.8077 17.0327 33.8077 15.7755C33.8086 15.4844 33.7661 15.1949 33.6815 14.9164V11.0441C33.7049 7.13483 31.6327 3.51251 28.2511 1.55112C24.8694 -0.410269 20.6963 -0.410269 17.3147 1.55112C13.933 3.51251 11.8609 7.13483 11.8843 11.0441V14.9156C11.8002 15.1934 11.7578 15.4821 11.7585 15.7724C11.7585 17.0295 12.5058 18.0145 13.4604 18.0145C13.5973 18.0144 13.7333 17.9934 13.8638 17.9522C14.5203 20.6019 16.2823 22.8426 18.7024 24.1055C12.451 24.3947 7.52907 29.5434 7.52161 35.8015V39.4079C5.67803 39.6199 4.31923 41.2322 4.42251 43.085C4.52578 44.9379 6.05534 46.3892 7.91107 46.395H37.6551C39.5108 46.3892 41.0404 44.9379 41.1437 43.085C41.2469 41.2322 39.8881 39.6199 38.0446 39.4079ZM37.2656 39.4079C36.481 39.4953 35.7491 39.8457 35.1891 40.4021V29.7148C35.1884 29.5933 35.1761 29.4721 35.1525 29.353C36.5271 31.2219 37.2676 33.4816 37.2656 35.8015V39.4079ZM33.847 27.8735C31.8939 26.017 29.3216 24.9508 26.6278 24.8813V25.2859C26.6269 26.1966 26.3 27.077 25.7063 27.7675H33.2418C33.4479 27.7702 33.6523 27.806 33.847 27.8735ZM25.815 24.583C25.8274 24.5931 25.8387 24.5986 25.8489 24.595V25.2871C25.8472 26.273 25.3694 27.1973 24.566 27.7687H21.0002C20.1968 27.1973 19.7189 26.273 19.7173 25.2871V24.5943C19.7251 24.597 19.7348 24.5838 19.7446 24.5651C20.6122 24.8831 21.5247 25.0621 22.4482 25.0955C22.5615 25.0994 22.674 25.1013 22.787 25.1013C23.8183 25.0995 24.842 24.9238 25.815 24.5818V24.583ZM12.3243 27.7687H19.8599V27.7675C19.2664 27.0773 18.9395 26.1974 18.9384 25.2871V24.8813C16.2443 24.9512 13.6719 26.0178 11.7187 27.8746C11.9136 27.8072 12.1181 27.7714 12.3243 27.7687ZM12.3243 28.5476H33.2418C33.8871 28.5476 34.4102 29.0707 34.4102 29.716V41.5701C34.2384 41.9893 34.1501 42.4381 34.15 42.8911C34.15 42.951 34.154 43.0098 34.158 43.0686L34.1609 43.1127H33.493V31.773C33.4917 30.6981 32.6207 29.8271 31.5458 29.8258H14.0204C12.9455 29.8271 12.0744 30.6981 12.0731 31.773V35.2446C12.0731 35.4597 12.2475 35.6341 12.4626 35.6341C12.6777 35.6341 12.852 35.4597 12.852 35.2446V31.773C12.852 31.1278 13.3751 30.6047 14.0204 30.6047H31.5458C32.191 30.6047 32.7141 31.1278 32.7141 31.773V43.1116H12.852V40.5754C12.852 40.3604 12.6777 40.186 12.4626 40.186C12.2475 40.186 12.0731 40.3604 12.0731 40.5754V43.1116H11.4052L11.4082 43.0674C11.4121 43.0086 11.4161 42.9498 11.4161 42.89C11.4161 42.4369 11.3277 41.9882 11.156 41.5689V29.7148C11.156 29.0695 11.6791 28.5464 12.3243 28.5464V28.5476ZM11.2689 43.892V43.8905C11.0657 44.5701 10.6615 45.1722 10.1095 45.6177H35.4566C34.9049 45.1726 34.5007 44.571 34.2972 43.892H11.2689ZM30.6469 12.9313C30.5601 11.693 29.5313 10.732 28.2899 10.7298H24.3697C23.6631 10.7306 23.0904 11.3033 23.0896 12.0099V12.3086H22.4602C22.377 11.4161 21.6294 10.7327 20.733 10.7298H17.2762C16.0342 10.7317 15.0051 11.6935 14.9193 12.9325L14.3678 13.0883V12.6089C14.3634 10.7322 15.1029 8.93025 16.4245 7.59779C16.8942 7.12677 17.5337 6.86458 18.1988 6.87029C18.4968 6.87088 18.7927 6.91954 19.0751 7.01439C20.2769 7.37769 21.5277 7.55268 22.7831 7.53314C24.0384 7.55268 25.2893 7.37769 26.4911 7.01439C27.4128 6.68527 28.4416 6.9122 29.1393 7.59857C30.4611 8.93092 31.2008 10.7329 31.1964 12.6096V13.0895L30.6469 12.9313ZM29.8762 14.4428V13.0941C29.8747 12.2188 29.1652 11.5097 28.2899 11.5087H24.3697C24.0935 11.5091 23.8696 11.7325 23.8685 12.0087V14.4428C23.8706 15.4937 24.722 16.3451 25.7729 16.3472H27.9718C29.0226 16.3451 29.874 15.4937 29.8762 14.4428ZM21.6977 12.4722V14.4416C21.6955 15.4925 20.8442 16.3439 19.7933 16.3461H17.5944C16.5435 16.3439 15.6921 15.4925 15.69 14.4416V13.0941C15.6915 12.2188 16.4009 11.5097 17.2762 11.5087H20.733C21.2651 11.5093 21.6964 11.9401 21.6977 12.4722ZM31.8877 17.1869C31.9563 17.218 32.0305 17.2351 32.1058 17.2371C32.6062 17.2371 33.0288 16.5669 33.0288 15.774C33.0288 14.981 32.6062 14.3112 32.1058 14.3112C32.0625 14.3118 32.0194 14.3173 31.9773 14.3275V15.9068C31.9768 16.335 31.9468 16.7627 31.8877 17.1869ZM22.7831 0.924133C28.3694 0.930572 32.8964 5.45771 32.9026 11.0441V13.7862C32.669 13.6228 32.3909 13.5347 32.1058 13.5338C32.0769 13.5338 32.0488 13.5376 32.0206 13.5414L32.0205 13.5414C32.0062 13.5433 31.9918 13.5452 31.9773 13.5467V12.612C31.9829 10.5293 31.1625 8.52932 29.6959 7.05061C28.7895 6.15152 27.4487 5.85038 26.2449 6.2756C25.1225 6.61236 23.9548 6.77381 22.7831 6.75423C21.6114 6.77378 20.4437 6.61233 19.3212 6.2756C18.1175 5.85038 16.7766 6.15152 15.8703 7.05061C14.4044 8.52856 13.584 10.5272 13.5889 12.6089V13.5436C13.5743 13.5421 13.5599 13.5402 13.5456 13.5383C13.5173 13.5345 13.4893 13.5307 13.4604 13.5307C13.175 13.5322 12.8969 13.6208 12.6632 13.7846V11.0441C12.6696 5.45764 17.1967 0.930571 22.7831 0.924133ZM12.5374 15.774C12.5374 16.5673 12.9599 17.2371 13.4604 17.2371C13.5457 17.2349 13.6295 17.2137 13.7057 17.1752C13.6281 16.6864 13.5891 16.1922 13.5889 15.6972V14.3291C13.5468 14.3188 13.5037 14.3133 13.4604 14.3127C12.9599 14.3127 12.5374 14.9806 12.5374 15.774ZM14.3678 15.6957V13.8987L14.9111 13.743V14.444C14.9132 15.925 16.1133 17.1252 17.5944 17.1273H19.7933C21.2743 17.1252 22.4744 15.925 22.4766 14.444V13.0863H23.0896V14.4428C23.0917 15.9239 24.2918 17.124 25.7729 17.1261H27.9718C29.4528 17.124 30.6529 15.9239 30.6551 14.4428V13.7418L31.2003 13.8976V15.9056C31.2004 18.191 30.2709 20.3781 28.6255 21.9643C26.9802 23.5505 24.7605 24.3992 22.4766 24.3154C18.0049 24.1577 14.3678 20.2904 14.3678 15.6957ZM10.3771 29.7148C10.3778 29.5932 10.39 29.4719 10.4137 29.3526C9.03907 31.2216 8.29858 33.4815 8.30052 35.8015V39.4079C9.08512 39.4953 9.81702 39.8457 10.3771 40.4021V29.7148ZM5.1849 42.89C5.1849 41.3843 6.40545 40.1638 7.91107 40.1638C9.41669 40.1638 10.6372 41.3843 10.6372 42.89C10.6372 44.3956 9.41669 45.6161 7.91107 45.6161C6.40616 45.6144 5.18662 44.3949 5.1849 42.89ZM34.9289 42.89C34.9289 44.3956 36.1495 45.6161 37.6551 45.6161C39.16 45.6144 40.3795 44.3949 40.3813 42.89C40.3813 41.3843 39.1607 40.1638 37.6551 40.1638C36.1495 40.1638 34.9289 41.3843 34.9289 42.89Z" fill="#3A2C60"/>
</svg>
