<svg width="39" height="32" viewBox="0 0 39 32" fill="none" xmlns="http://www.w3.org/2000/svg">
<path d="M23.7277 4.92308H33.5295C34.2136 4.92301 34.8903 5.06552 35.5162 5.34152C36.1422 5.61752 36.7038 6.02095 37.1651 6.52608C37.6265 7.03121 37.9775 7.62695 38.1958 8.27531C38.4141 8.92366 38.4948 9.61039 38.4329 10.2917L36.8649 27.5225C36.7538 28.7456 36.1894 29.8831 35.2826 30.7115C34.3759 31.5399 33.1922 31.9995 31.964 32H6.48953C5.26131 31.9995 4.07764 31.5399 3.17088 30.7115C2.26411 29.8831 1.69976 28.7456 1.58861 27.5225L0.020605 10.2917C-0.0842904 9.15147 0.213575 8.01052 0.862451 7.06708L0.766451 4.92308C0.766451 3.6174 1.28513 2.36519 2.20839 1.44194C3.13164 0.51868 4.38385 0 5.68953 0H14.7283C16.0339 0.00027883 17.2859 0.519141 18.2089 1.44246L20.2471 3.48062C21.1701 4.40394 22.4221 4.9228 23.7277 4.92308ZM3.24276 5.21846C3.76953 5.02646 4.33568 4.92308 4.92645 4.92308H18.2089L16.4686 3.18277C16.0071 2.72111 15.3811 2.46168 14.7283 2.46154H5.68953C5.04471 2.46142 4.42559 2.71433 3.96529 3.16589C3.50498 3.61745 3.24024 4.23161 3.22799 4.87631L3.24276 5.21846Z" fill="#518EF8"/>
</svg>
