<svg width="47" height="47" viewBox="0 0 47 47" fill="none" xmlns="http://www.w3.org/2000/svg">
<rect x="1" y="1" width="45" height="45" rx="5" fill="black" fill-opacity="0.8" stroke="black"/>
<path fill-rule="evenodd" clip-rule="evenodd" d="M30.4375 21.25H29.75V18.5C29.75 15.4667 27.2832 13 24.25 13C21.2168 13 18.75 15.4667 18.75 18.5V21.25H18.0625C16.9258 21.25 16 22.1749 16 23.3125V32.9375C16 34.0751 16.9258 35 18.0625 35H30.4375C31.5742 35 32.5 34.0751 32.5 32.9375V23.3125C32.5 22.1749 31.5742 21.25 30.4375 21.25ZM20.5833 18.5C20.5833 16.4778 22.2278 14.8333 24.25 14.8333C26.2722 14.8333 27.9167 16.4778 27.9167 18.5V21.25H20.5833V18.5ZM25.1667 30.4167V28.3285C25.7121 28.0104 26.0833 27.4256 26.0833 26.75C26.0833 25.7389 25.2611 24.9167 24.25 24.9167C23.2389 24.9167 22.4167 25.7389 22.4167 26.75C22.4167 27.4256 22.7879 28.0104 23.3333 28.3285V30.4167C23.3333 30.9227 23.7431 31.3333 24.25 31.3333C24.7569 31.3333 25.1667 30.9227 25.1667 30.4167Z" fill="white"/>
</svg>
