<svg width="22" height="12" viewBox="0 0 22 12" fill="none" xmlns="http://www.w3.org/2000/svg">
<path d="M10.1475 5.09636L6.0225 0.283857C5.8355 0.0652323 5.52887 -0.0145177 5.26075 0.0858573C4.99125 0.186232 4.8125 0.443357 4.8125 0.730732V2.79323H0.6875C0.308 2.79323 0 3.10123 0 3.48073V7.60573C0 7.98523 0.308 8.29323 0.6875 8.29323H4.8125V10.3557C4.8125 10.6431 4.99125 10.9002 5.26075 11.0006C5.33912 11.0295 5.41888 11.0432 5.5 11.0432C5.698 11.0432 5.88913 10.958 6.0225 10.8026L10.1475 5.99011C10.3675 5.73161 10.3675 5.35348 10.1475 5.09636Z" fill="white"/>
<path d="M21.3125 2.79348H17.1875V0.730977C17.1875 0.443602 17.0088 0.186477 16.7393 0.086102C16.4711 -0.014273 16.1645 0.064102 15.9775 0.284102L11.8525 5.0966C11.6325 5.3551 11.6325 5.73323 11.8525 5.99035L15.9775 10.8029C16.1109 10.9582 16.302 11.0435 16.5 11.0435C16.5811 11.0435 16.6609 11.0297 16.7393 11.0009C17.0088 10.9019 17.1875 10.6434 17.1875 10.356V8.29348H21.3125C21.692 8.29348 22 7.98548 22 7.60598V3.48098C22 3.10148 21.692 2.79348 21.3125 2.79348Z" fill="white"/>
</svg>
