<svg width="29" height="16" viewBox="0 0 29 16" fill="none" xmlns="http://www.w3.org/2000/svg">
<path d="M1.53044 6.70061C1.60649 6.68826 1.68346 6.68257 1.76047 6.68357H24.873L24.5871 6.55058C24.3076 6.4183 24.0534 6.23827 23.8357 6.01863L20.1586 2.34154C19.6744 1.87924 19.593 1.13556 19.9658 0.579463C20.3997 -0.0131189 21.2318 -0.141784 21.8245 0.292128C21.8723 0.327203 21.9178 0.365437 21.9606 0.40658L28.61 7.05593C29.1296 7.575 29.1301 8.41701 28.611 8.93666L21.9606 15.587C21.4406 16.1057 20.5985 16.1045 20.0799 15.5844C20.0391 15.5435 20.001 15.4999 19.9658 15.4541C19.593 14.898 19.6744 14.1543 20.1586 13.692L23.8291 10.0082C24.0242 9.81292 24.2485 9.64914 24.494 9.52284L24.893 9.34331H1.83365C1.1543 9.36853 0.558266 8.89398 0.430639 8.22622C0.31307 7.50123 0.805454 6.81822 1.53044 6.70061Z" fill="#55DDCC"/>
</svg>
