<svg width="28" height="26" viewBox="0 0 28 26" fill="none" xmlns="http://www.w3.org/2000/svg">
<g filter="url(#filter0_d)">
<circle cx="14" cy="12" r="12" fill="url(#paint0_linear)"/>
</g>
<path d="M19.5 11.4411C19.224 11.4411 19.0001 11.2172 19.0001 10.9411C19.0001 9.53863 18.454 8.22063 17.4625 7.22857C17.2671 7.0331 17.2671 6.71716 17.4625 6.5216C17.658 6.32613 17.974 6.32613 18.1695 6.5216C19.3501 7.70208 20 9.27166 20 10.9411C20 11.2172 19.7761 11.4411 19.5 11.4411Z" fill="white"/>
<path d="M9.49997 11.4411C9.22403 11.4411 9 11.2172 9 10.9411C9 9.27166 9.65002 7.70208 10.8305 6.5216C11.026 6.32613 11.342 6.32613 11.5375 6.5216C11.733 6.71716 11.733 7.0331 11.5375 7.22857C10.546 8.22009 10 9.53863 10 10.9411C10 11.2172 9.776 11.4411 9.49997 11.4411Z" fill="white"/>
<path d="M19.1896 14.4565C18.4335 13.8175 18 12.8835 18 11.894V10.5C18 8.74054 16.693 7.28403 15 7.04004V6.49997C15 6.22348 14.776 6 14.5001 6C14.224 6 14 6.22348 14 6.49997V7.04004C12.3065 7.28403 11 8.74054 11 10.5V11.894C11 12.8835 10.5665 13.8175 9.80606 14.4605C9.61151 14.627 9.5 14.869 9.5 15.125C9.5 15.6075 9.89249 16 10.3751 16H18.6251C19.1075 16 19.5 15.6075 19.5 15.125C19.5 14.869 19.3885 14.627 19.1896 14.4565Z" fill="white"/>
<path d="M14.5001 18C15.4055 18 16.1631 17.3545 16.3371 16.5H12.6631C12.837 17.3545 13.5945 18 14.5001 18Z" fill="white"/>
<defs>
<filter id="filter0_d" x="0" y="-2" width="28" height="28" filterUnits="userSpaceOnUse" color-interpolation-filters="sRGB">
<feFlood flood-opacity="0" result="BackgroundImageFix"/>
<feColorMatrix in="SourceAlpha" type="matrix" values="0 0 0 0 0 0 0 0 0 0 0 0 0 0 0 0 0 0 127 0"/>
<feOffset/>
<feGaussianBlur stdDeviation="1"/>
<feColorMatrix type="matrix" values="0 0 0 0 0 0 0 0 0 0 0 0 0 0 0 0 0 0 0.2 0"/>
<feBlend mode="normal" in2="BackgroundImageFix" result="effect1_dropShadow"/>
<feBlend mode="normal" in="SourceGraphic" in2="effect1_dropShadow" result="shape"/>
</filter>
<linearGradient id="paint0_linear" x1="2.08143" y1="0" x2="2.08143" y2="23.8371" gradientUnits="userSpaceOnUse">
<stop stop-color="#626262"/>
<stop offset="1" stop-color="#141414"/>
</linearGradient>
</defs>
</svg>
