<svg width="24" height="24" viewBox="0 0 24 24" fill="none" xmlns="http://www.w3.org/2000/svg">
<circle cx="12" cy="12" r="12" fill="url(#paint0_linear)"/>
<path d="M10.2419 12.6095C10.2419 12.4595 10.1202 12.3379 9.96998 12.3379H9.02114C8.87113 12.3379 8.74939 12.4595 8.74939 12.6095V13.5582C8.74939 13.7085 8.87113 13.8301 9.02114 13.8301H9.96998C10.1202 13.8301 10.2419 13.7085 10.2419 13.5582V12.6095Z" fill="white"/>
<path d="M12.6131 12.6095C12.6131 12.4595 12.4913 12.3379 12.3414 12.3379H11.3925C11.2425 12.3379 11.1207 12.4595 11.1207 12.6095V13.5582C11.1207 13.7085 11.2425 13.8301 11.3925 13.8301H12.3414C12.4913 13.8301 12.6131 13.7085 12.6131 13.5582V12.6095Z" fill="white"/>
<path d="M14.9846 12.6095C14.9846 12.4595 14.8628 12.3379 14.7128 12.3379H13.764C13.6138 12.3379 13.4921 12.4595 13.4921 12.6095V13.5582C13.4921 13.7085 13.6138 13.8301 13.764 13.8301H14.7128C14.8628 13.8301 14.9846 13.7085 14.9846 13.5582V12.6095Z" fill="white"/>
<path d="M10.2419 14.9808C10.2419 14.8305 10.1202 14.709 9.96998 14.709H9.02114C8.87113 14.709 8.74939 14.8305 8.74939 14.9808V15.9293C8.74939 16.0795 8.87113 16.2011 9.02114 16.2011H9.96998C10.1202 16.2011 10.2419 16.0794 10.2419 15.9293V14.9808Z" fill="white"/>
<path d="M12.6131 14.9808C12.6131 14.8305 12.4913 14.709 12.3414 14.709H11.3925C11.2425 14.709 11.1207 14.8305 11.1207 14.9808V15.9293C11.1207 16.0795 11.2425 16.2011 11.3925 16.2011H12.3414C12.4913 16.2011 12.6131 16.0794 12.6131 15.9293V14.9808Z" fill="white"/>
<path d="M14.9846 14.9808C14.9846 14.8305 14.8628 14.709 14.7129 14.709H13.764C13.6138 14.709 13.4921 14.8305 13.4921 14.9808V15.9293C13.4921 16.0795 13.6138 16.2011 13.764 16.2011H14.7129C14.8628 16.2011 14.9846 16.0794 14.9846 15.9293V14.9808Z" fill="white"/>
<path fill-rule="evenodd" clip-rule="evenodd" d="M16.6811 8.78241V7.33333C17.2535 7.35058 17.7238 7.82417 17.7238 8.40628V16.8986C17.7238 17.4906 17.2422 17.9787 16.65 17.9787H7.08387C6.49082 17.9787 6.01013 17.4916 6.01013 16.8986V8.40628C6.01013 7.82417 6.48044 7.35058 7.05278 7.33333V8.78241C7.05278 9.43738 7.5841 9.96518 8.23894 9.96518H8.98738C9.64221 9.96518 10.1806 9.43738 10.1806 8.78241V7.32812H13.5533V8.78241C13.5533 9.43738 14.0917 9.96518 14.7466 9.96518H15.4949C16.1498 9.96518 16.6811 9.43738 16.6811 8.78241ZM15.8694 16.834C16.1258 16.834 16.3336 16.626 16.3336 16.3697L16.3335 11.9832C16.3335 11.7268 16.1257 11.5188 15.8693 11.5188H7.84407C7.58765 11.5188 7.37987 11.7268 7.37987 11.9832V16.3697C7.37987 16.626 7.58768 16.834 7.84407 16.834H15.8694Z" fill="white"/>
<path d="M8.23629 9.18883H8.97646C9.20112 9.18883 9.38328 9.00694 9.38328 8.78228V6.4067C9.38328 6.18201 9.20112 6 8.97646 6H8.23629C8.0116 6 7.82947 6.18201 7.82947 6.4067V8.78228C7.82947 9.00694 8.0116 9.18883 8.23629 9.18883Z" fill="white"/>
<path d="M14.7371 9.18883H15.4773C15.7018 9.18883 15.884 9.00694 15.884 8.78228V6.4067C15.884 6.18201 15.7018 6 15.4773 6H14.7371C14.5125 6 14.3303 6.18201 14.3303 6.4067V8.78228C14.3303 9.00694 14.5125 9.18883 14.7371 9.18883Z" fill="white"/>
<defs>
<linearGradient id="paint0_linear" x1="0.0814263" y1="0" x2="0.0814263" y2="23.8371" gradientUnits="userSpaceOnUse">
<stop stop-color="#7ECEFF"/>
<stop offset="1" stop-color="#50B4F0"/>
</linearGradient>
</defs>
</svg>
