<svg width="49" height="48" viewBox="0 0 49 48" fill="none" xmlns="http://www.w3.org/2000/svg">
<circle cx="24.8726" cy="24" r="24" fill="url(#paint0_linear_1530_24286)"/>
<path fill-rule="evenodd" clip-rule="evenodd" d="M24.8726 9.84375C24.4122 9.84375 24.0399 10.2162 24.0399 10.6764V14.0073C24.0399 14.4676 24.4123 14.84 24.8726 14.84C29.9233 14.84 34.0325 18.9491 34.0325 23.9999C34.0325 29.0507 29.9233 33.1598 24.8726 33.1598C19.8218 33.1598 15.7126 29.0508 15.7126 24C15.7126 23.5397 15.3402 23.1673 14.8798 23.1673H11.549C11.0887 23.1673 10.7163 23.5398 10.7163 24C10.7163 31.8059 17.0667 38.1562 24.8726 38.1562C32.6785 38.1562 39.0288 31.8059 39.0288 24C39.0288 16.1941 32.6785 9.84375 24.8726 9.84375ZM24.8726 26.4982C23.495 26.4982 22.3744 25.3776 22.3744 24C22.3744 23.5397 22.0019 23.1673 21.5417 23.1673H18.2108C17.7506 23.1673 17.3781 23.5398 17.3781 24C17.3781 28.1327 20.7399 31.4945 24.8726 31.4945C29.0052 31.4945 32.367 28.1327 32.367 24C32.367 19.8673 29.0052 16.5055 24.8726 16.5055C24.4122 16.5055 24.0399 16.878 24.0399 17.3382V20.6691C24.0399 21.1294 24.4123 21.5017 24.8726 21.5017C26.2501 21.5017 27.3707 22.6223 27.3707 23.9999C27.3707 25.3776 26.2501 26.4982 24.8726 26.4982ZM21.5416 18.1709H11.549C11.0888 18.1709 10.7163 17.7984 10.7163 17.3382C10.7163 16.878 11.0887 16.5055 11.549 16.5055H21.5416C22.0018 16.5055 22.3743 16.878 22.3743 17.3382C22.3743 17.7984 22.0018 18.1709 21.5416 18.1709ZM14.8799 14.8401H21.5417C22.0019 14.8401 22.3744 14.4676 22.3744 14.0074C22.3744 13.5471 22.0019 13.1747 21.5417 13.1747H14.8799C14.4197 13.1747 14.0472 13.5472 14.0472 14.0074C14.0472 14.4676 14.4196 14.8401 14.8799 14.8401ZM12.3817 14.0073C12.3817 14.4672 12.0088 14.84 11.549 14.84C11.0891 14.84 10.7163 14.4672 10.7163 14.0073C10.7163 13.5474 11.0891 13.1746 11.549 13.1746C12.0088 13.1746 12.3817 13.5474 12.3817 14.0073Z" fill="url(#paint1_linear_1530_24286)"/>
<defs>
<linearGradient id="paint0_linear_1530_24286" x1="48.8726" y1="48" x2="48.8726" y2="0" gradientUnits="userSpaceOnUse">
<stop stop-color="#ADDCFF"/>
<stop offset="0.5028" stop-color="#EAF6FF"/>
<stop offset="1" stop-color="#EAF6FF"/>
</linearGradient>
<linearGradient id="paint1_linear_1530_24286" x1="10.7163" y1="9.84375" x2="10.7163" y2="38.1562" gradientUnits="userSpaceOnUse">
<stop stop-color="#5558FF"/>
<stop offset="1" stop-color="#00C0FF"/>
</linearGradient>
</defs>
</svg>
