<svg width="48" height="48" viewBox="0 0 48 48" fill="none" xmlns="http://www.w3.org/2000/svg">
<circle cx="24" cy="24" r="24" fill="url(#paint0_linear_1530_24296)"/>
<path fill-rule="evenodd" clip-rule="evenodd" d="M23.8789 21.5018L22.903 19.5502C22.4761 18.6996 21.6205 18.1709 20.6693 18.1709H14.8402V10.6764C14.8402 10.2162 15.2125 9.84375 15.6728 9.84375H28.1635V14.0073C28.1635 14.4676 28.536 14.8401 28.9963 14.8401H34.8254V21.5018H23.8789ZM29.8291 10.2308V13.1746H34.2448L29.8291 10.2308ZM37.3236 23.1673H22.8493L21.414 20.2967C21.2725 20.0145 20.9846 19.8364 20.6692 19.8364H10.6764C10.2161 19.8364 9.84375 20.2088 9.84375 20.6692V37.3236C9.84375 37.7839 10.2162 38.1562 10.6764 38.1562H37.3235C37.7838 38.1562 38.1562 37.7838 38.1562 37.3236V24C38.1562 23.5397 37.7838 23.1673 37.3236 23.1673ZM17.3382 34.8254H14.0073C13.5471 34.8254 13.1746 34.4529 13.1746 33.9926C13.1746 33.5324 13.5471 33.1599 14.0073 33.1599H17.3382C17.7985 33.1599 18.1709 33.5324 18.1709 33.9926C18.1709 34.4529 17.7985 34.8254 17.3382 34.8254ZM14.0073 31.4945H17.3382C17.7985 31.4945 18.1709 31.122 18.1709 30.6618C18.1709 30.2016 17.7985 29.8291 17.3382 29.8291H14.0073C13.5471 29.8291 13.1746 30.2015 13.1746 30.6618C13.1746 31.122 13.5471 31.4945 14.0073 31.4945Z" fill="url(#paint1_linear_1530_24296)"/>
<defs>
<linearGradient id="paint0_linear_1530_24296" x1="48" y1="48" x2="48" y2="0" gradientUnits="userSpaceOnUse">
<stop stop-color="#FFE59A"/>
<stop offset="1" stop-color="#FFFFD5"/>
</linearGradient>
<linearGradient id="paint1_linear_1530_24296" x1="9.8438" y1="9.84375" x2="9.8438" y2="38.1562" gradientUnits="userSpaceOnUse">
<stop stop-color="#FD5900"/>
<stop offset="1" stop-color="#FFDE00"/>
</linearGradient>
</defs>
</svg>
