<svg width="15" height="22" viewBox="0 0 15 22" fill="none" xmlns="http://www.w3.org/2000/svg">
<path fill-rule="evenodd" clip-rule="evenodd" d="M14.2227 5.15625V16.8438C14.2227 19.6869 11.9165 22 9.08194 22H5.14072C2.30613 22 0 19.6869 0 16.8438V5.15625C0 2.3131 2.30613 0 5.14072 0H9.08194C11.9165 0 14.2227 2.3131 14.2227 5.15625ZM3.27587 14.4051L7.12154 18.4828L10.9483 14.4034L9.70026 13.2256L7.11819 15.9782L4.52072 13.224L3.27587 14.4051ZM9.08194 1.71875C10.9717 1.71875 12.5091 3.26076 12.5091 5.15625V16.8438C12.5091 18.7392 10.9717 20.2812 9.08194 20.2812H5.14072C3.25094 20.2812 1.71357 18.7392 1.71357 16.8438V5.15625C1.71357 3.26076 3.25094 1.71875 5.14072 1.71875H9.08194ZM6.25454 4.33984C6.25454 3.86517 6.63809 3.48047 7.11133 3.48047C7.58457 3.48047 7.96811 3.86517 7.96811 4.33984C7.96811 4.81451 7.58457 5.19922 7.11133 5.19922C6.63809 5.19922 6.25454 4.81451 6.25454 4.33984ZM7.11133 6.91797C6.63809 6.91797 6.25454 7.30267 6.25454 7.77734C6.25454 8.25201 6.63809 8.63672 7.11133 8.63672C7.58457 8.63672 7.96811 8.25201 7.96811 7.77734C7.96811 7.30267 7.58457 6.91797 7.11133 6.91797ZM6.25454 11.2148C6.25454 10.7402 6.63809 10.3555 7.11133 10.3555C7.58457 10.3555 7.96811 10.7402 7.96811 11.2148C7.96811 11.6895 7.58457 12.0742 7.11133 12.0742C6.63809 12.0742 6.25454 11.6895 6.25454 11.2148Z" fill="black"/>
</svg>
