<svg width="16" height="5" viewBox="0 0 16 5" fill="none" xmlns="http://www.w3.org/2000/svg">
<path d="M15.4005 0.596021C16.1809 1.37639 16.1809 2.64163 15.4005 3.42201C14.6201 4.20238 13.3549 4.20238 12.5745 3.42201C11.7942 2.64163 11.7942 1.37639 12.5745 0.596021C13.3549 -0.184351 14.6201 -0.184351 15.4005 0.596021Z" fill="#9EA9C9"/>
<path d="M9.40638 0.596021C10.1868 1.37639 10.1868 2.64163 9.40638 3.42201C8.62601 4.20238 7.36077 4.20238 6.5804 3.42201C5.80002 2.64163 5.80002 1.37639 6.5804 0.596021C7.36077 -0.184351 8.62601 -0.184351 9.40638 0.596021Z" fill="#9EA9C9"/>
<path d="M3.41126 0.596021C4.19164 1.37639 4.19164 2.64163 3.41126 3.42201C2.63089 4.20238 1.36565 4.20238 0.585279 3.42201C-0.195093 2.64163 -0.195093 1.37639 0.585279 0.596021C1.36565 -0.184351 2.63089 -0.184351 3.41126 0.596021Z" fill="#9EA9C9"/>
</svg>
