<svg width="30" height="32" viewBox="0 0 30 32" fill="none" xmlns="http://www.w3.org/2000/svg">
<path d="M6.07178 10.375C2.96996 10.375 0.446777 12.8982 0.446777 16C0.446777 19.1018 2.96996 21.625 6.07178 21.625C9.17359 21.625 11.6968 19.1018 11.6968 16C11.6968 12.8982 9.17359 10.375 6.07178 10.375Z" fill="#E8CB98"/>
<path d="M22.947 0C19.8452 0 17.322 2.58569 17.322 5.6875C17.322 6.426 17.4738 7.12762 17.7335 7.77431L11.9009 11.3391C12.2922 11.8273 12.6366 12.3514 12.8973 12.9281L18.7258 9.36575C19.7578 10.5485 21.2576 11.3125 22.947 11.3125C26.0488 11.3125 28.572 8.78931 28.572 5.6875C28.572 2.58569 26.0488 0 22.947 0Z" fill="#E8CB98"/>
<path d="M22.9469 20.6878C21.2575 20.6878 19.7576 21.4518 18.7258 22.6346L12.8972 19.0723C12.6365 19.649 12.2921 20.1731 11.9009 20.6613L17.7333 24.226C17.4735 24.8726 17.3219 25.5743 17.3219 26.3128C17.3219 29.4146 19.8451 32.0003 22.9469 32.0003C26.0487 32.0003 28.5719 29.4146 28.5719 26.3128C28.5719 23.211 26.0487 20.6878 22.9469 20.6878Z" fill="#E8CB98"/>
</svg>
