<svg width="16" height="16" viewBox="0 0 16 16" fill="none" xmlns="http://www.w3.org/2000/svg">
<path fill-rule="evenodd" clip-rule="evenodd" d="M0 8C0 3.58862 3.58862 0 8 0C12.4114 0 16 3.58862 16 8C16 12.4114 12.4114 16 8 16C3.58862 16 0 12.4114 0 8ZM8.66663 8.66663H11.5C11.868 8.66663 12.1666 8.36804 12.1666 8C12.1666 7.63196 11.868 7.33337 11.5 7.33337H8.66663V4.5C8.66663 4.13196 8.36804 3.83337 8 3.83337C7.63196 3.83337 7.33337 4.13196 7.33337 4.5V7.33337H4.5C4.13196 7.33337 3.83337 7.63196 3.83337 8C3.83337 8.36804 4.13196 8.66663 4.5 8.66663H7.33337V11.5C7.33337 11.868 7.63196 12.1666 8 12.1666C8.36804 12.1666 8.66663 11.868 8.66663 11.5V8.66663Z" fill="white"/>
</svg>
