<svg width="32" height="32" viewBox="0 0 32 32" fill="none" xmlns="http://www.w3.org/2000/svg">
<rect x="1" y="1" width="30" height="30" rx="3" fill="black" fill-opacity="0.8" stroke="black"/>
<path fill-rule="evenodd" clip-rule="evenodd" d="M15.8022 12.3777C15.8022 9.98101 17.7521 8.03125 20.1486 8.03125C22.5453 8.03125 24.4951 9.98107 24.4952 12.3777C24.4952 13.0274 23.9685 13.5541 23.3187 13.5541C22.6689 13.5541 22.1422 13.0274 22.1422 12.3777C22.1422 11.2784 21.2479 10.3842 20.1487 10.3842C19.0495 10.3842 18.1552 11.2785 18.1552 12.3777V14.2665H18.6691C19.193 14.2665 19.6176 14.6912 19.6176 15.2151V23.0435C19.6176 23.5674 19.193 23.992 18.6691 23.992H8.94853C8.42471 23.992 8 23.5674 8 23.0435V15.2151C8 14.6912 8.42471 14.2665 8.94853 14.2665H15.8022V12.3777ZM14.7304 20.7764V19.2215C15.0765 18.9487 15.2991 18.5259 15.2991 18.0509C15.2991 17.2278 14.6319 16.5607 13.8088 16.5607C12.9858 16.5607 12.3186 17.2278 12.3186 18.0509C12.3186 18.5259 12.5411 18.9487 12.8873 19.2215V20.7764C12.8873 21.2853 13.2999 21.6979 13.8088 21.6979C14.3178 21.6979 14.7304 21.2853 14.7304 20.7764Z" fill="white"/>
</svg>
