<svg xmlns="http://www.w3.org/2000/svg" xmlns:xlink="http://www.w3.org/1999/xlink" width="45" height="45" viewBox="0 0 45 45">
  <defs>
    <filter id="Rectangle" x="0" y="0" width="45" height="45" filterUnits="userSpaceOnUse">
      <feOffset dy="1" input="SourceAlpha"/>
      <feGaussianBlur stdDeviation="2.5" result="blur"/>
      <feFlood flood-opacity="0.502"/>
      <feComposite operator="in" in2="blur"/>
      <feComposite in="SourceGraphic"/>
    </filter>
  </defs>
  <g id="Group_19" data-name="Group 19" transform="translate(7.5 6.5)">
    <g transform="matrix(1, 0, 0, 1, -7.5, -6.5)" filter="url(#Rectangle)">
      <rect id="Rectangle-2" data-name="Rectangle" width="30" height="30" rx="5" transform="translate(7.5 6.5)" opacity="0.7"/>
    </g>
    <g id="video-camera" transform="translate(7 10)">
      <path id="Path" d="M10.33,0H1.111A1.112,1.112,0,0,0,0,1.111V8.423A1.112,1.112,0,0,0,1.111,9.534H10.33a1.112,1.112,0,0,0,1.111-1.111V1.111A1.112,1.112,0,0,0,10.33,0Z" fill="#fff"/>
      <path id="Path-2" data-name="Path" d="M0,5.1,3.818,7.189V0L0,2.085Z" transform="translate(12.182 1.184)" fill="#fff"/>
    </g>
  </g>
</svg>
