<svg width="249" height="9" viewBox="0 0 249 9" fill="none" xmlns="http://www.w3.org/2000/svg">
<path d="M0.146447 4.14645C-0.0488155 4.34171 -0.0488155 4.65829 0.146447 4.85355L3.32843 8.03553C3.52369 8.2308 3.84027 8.2308 4.03553 8.03553C4.2308 7.84027 4.2308 7.52369 4.03553 7.32843L1.20711 4.5L4.03553 1.67157C4.2308 1.47631 4.2308 1.15973 4.03553 0.964466C3.84027 0.769204 3.52369 0.769204 3.32843 0.964466L0.146447 4.14645ZM248.854 4.85355C249.049 4.65829 249.049 4.34171 248.854 4.14645L245.672 0.964466C245.476 0.769204 245.16 0.769204 244.964 0.964466C244.769 1.15973 244.769 1.47631 244.964 1.67157L247.793 4.5L244.964 7.32843C244.769 7.52369 244.769 7.84027 244.964 8.03553C245.16 8.2308 245.476 8.2308 245.672 8.03553L248.854 4.85355ZM2.98 5C3.25614 5 3.48 4.77614 3.48 4.5C3.48 4.22386 3.25614 4 2.98 4V5ZM7.94 4C7.66386 4 7.44 4.22386 7.44 4.5C7.44 4.77614 7.66386 5 7.94 5V4ZM12.9 5C13.1761 5 13.4 4.77614 13.4 4.5C13.4 4.22386 13.1761 4 12.9 4V5ZM17.86 4C17.5839 4 17.36 4.22386 17.36 4.5C17.36 4.77614 17.5839 5 17.86 5V4ZM22.82 5C23.0961 5 23.32 4.77614 23.32 4.5C23.32 4.22386 23.0961 4 22.82 4V5ZM27.78 4C27.5039 4 27.28 4.22386 27.28 4.5C27.28 4.77614 27.5039 5 27.78 5V4ZM32.74 5C33.0161 5 33.24 4.77614 33.24 4.5C33.24 4.22386 33.0161 4 32.74 4V5ZM37.7 4C37.4239 4 37.2 4.22386 37.2 4.5C37.2 4.77614 37.4239 5 37.7 5V4ZM42.66 5C42.9361 5 43.16 4.77614 43.16 4.5C43.16 4.22386 42.9361 4 42.66 4V5ZM47.62 4C47.3439 4 47.12 4.22386 47.12 4.5C47.12 4.77614 47.3439 5 47.62 5V4ZM52.58 5C52.8561 5 53.08 4.77614 53.08 4.5C53.08 4.22386 52.8561 4 52.58 4V5ZM57.54 4C57.2639 4 57.04 4.22386 57.04 4.5C57.04 4.77614 57.2639 5 57.54 5V4ZM62.5 5C62.7761 5 63 4.77614 63 4.5C63 4.22386 62.7761 4 62.5 4V5ZM67.46 4C67.1838 4 66.96 4.22386 66.96 4.5C66.96 4.77614 67.1838 5 67.46 5V4ZM72.42 5C72.6961 5 72.92 4.77614 72.92 4.5C72.92 4.22386 72.6961 4 72.42 4V5ZM77.38 4C77.1039 4 76.88 4.22386 76.88 4.5C76.88 4.77614 77.1039 5 77.38 5V4ZM82.34 5C82.6161 5 82.84 4.77614 82.84 4.5C82.84 4.22386 82.6161 4 82.34 4V5ZM87.3 4C87.0238 4 86.8 4.22386 86.8 4.5C86.8 4.77614 87.0238 5 87.3 5V4ZM92.26 5C92.5361 5 92.76 4.77614 92.76 4.5C92.76 4.22386 92.5361 4 92.26 4V5ZM97.22 4C96.9438 4 96.72 4.22386 96.72 4.5C96.72 4.77614 96.9438 5 97.22 5V4ZM102.18 5C102.456 5 102.68 4.77614 102.68 4.5C102.68 4.22386 102.456 4 102.18 4V5ZM107.14 4C106.864 4 106.64 4.22386 106.64 4.5C106.64 4.77614 106.864 5 107.14 5V4ZM112.1 5C112.376 5 112.6 4.77614 112.6 4.5C112.6 4.22386 112.376 4 112.1 4V5ZM117.06 4C116.784 4 116.56 4.22386 116.56 4.5C116.56 4.77614 116.784 5 117.06 5V4ZM122.02 5C122.296 5 122.52 4.77614 122.52 4.5C122.52 4.22386 122.296 4 122.02 4V5ZM126.98 4C126.704 4 126.48 4.22386 126.48 4.5C126.48 4.77614 126.704 5 126.98 5V4ZM131.94 5C132.216 5 132.44 4.77614 132.44 4.5C132.44 4.22386 132.216 4 131.94 4V5ZM136.9 4C136.624 4 136.4 4.22386 136.4 4.5C136.4 4.77614 136.624 5 136.9 5V4ZM141.86 5C142.136 5 142.36 4.77614 142.36 4.5C142.36 4.22386 142.136 4 141.86 4V5ZM146.82 4C146.544 4 146.32 4.22386 146.32 4.5C146.32 4.77614 146.544 5 146.82 5V4ZM151.78 5C152.056 5 152.28 4.77614 152.28 4.5C152.28 4.22386 152.056 4 151.78 4V5ZM156.74 4C156.464 4 156.24 4.22386 156.24 4.5C156.24 4.77614 156.464 5 156.74 5V4ZM161.7 5C161.976 5 162.2 4.77614 162.2 4.5C162.2 4.22386 161.976 4 161.7 4V5ZM166.66 4C166.384 4 166.16 4.22386 166.16 4.5C166.16 4.77614 166.384 5 166.66 5V4ZM171.62 5C171.896 5 172.12 4.77614 172.12 4.5C172.12 4.22386 171.896 4 171.62 4V5ZM176.58 4C176.304 4 176.08 4.22386 176.08 4.5C176.08 4.77614 176.304 5 176.58 5V4ZM181.54 5C181.816 5 182.04 4.77614 182.04 4.5C182.04 4.22386 181.816 4 181.54 4V5ZM186.5 4C186.224 4 186 4.22386 186 4.5C186 4.77614 186.224 5 186.5 5V4ZM191.46 5C191.736 5 191.96 4.77614 191.96 4.5C191.96 4.22386 191.736 4 191.46 4V5ZM196.42 4C196.144 4 195.92 4.22386 195.92 4.5C195.92 4.77614 196.144 5 196.42 5V4ZM201.38 5C201.656 5 201.88 4.77614 201.88 4.5C201.88 4.22386 201.656 4 201.38 4V5ZM206.34 4C206.064 4 205.84 4.22386 205.84 4.5C205.84 4.77614 206.064 5 206.34 5V4ZM211.3 5C211.576 5 211.8 4.77614 211.8 4.5C211.8 4.22386 211.576 4 211.3 4V5ZM216.26 4C215.984 4 215.76 4.22386 215.76 4.5C215.76 4.77614 215.984 5 216.26 5V4ZM221.22 5C221.496 5 221.72 4.77614 221.72 4.5C221.72 4.22386 221.496 4 221.22 4V5ZM226.18 4C225.904 4 225.68 4.22386 225.68 4.5C225.68 4.77614 225.904 5 226.18 5V4ZM231.14 5C231.416 5 231.64 4.77614 231.64 4.5C231.64 4.22386 231.416 4 231.14 4V5ZM236.1 4C235.824 4 235.6 4.22386 235.6 4.5C235.6 4.77614 235.824 5 236.1 5V4ZM241.06 5C241.336 5 241.56 4.77614 241.56 4.5C241.56 4.22386 241.336 4 241.06 4V5ZM246.02 4C245.744 4 245.52 4.22386 245.52 4.5C245.52 4.77614 245.744 5 246.02 5V4ZM0.5 5H2.98V4H0.5V5ZM7.94 5H12.9V4H7.94V5ZM17.86 5H22.82V4H17.86V5ZM27.78 5H32.74V4H27.78V5ZM37.7 5H42.66V4H37.7V5ZM47.62 5H52.58V4H47.62V5ZM57.54 5H62.5V4H57.54V5ZM67.46 5H72.42V4H67.46V5ZM77.38 5H82.34V4H77.38V5ZM87.3 5H92.26V4H87.3V5ZM97.22 5H102.18V4H97.22V5ZM107.14 5H112.1V4H107.14V5ZM117.06 5H122.02V4H117.06V5ZM126.98 5H131.94V4H126.98V5ZM136.9 5H141.86V4H136.9V5ZM146.82 5H151.78V4H146.82V5ZM156.74 5H161.7V4H156.74V5ZM166.66 5H171.62V4H166.66V5ZM176.58 5H181.54V4H176.58V5ZM186.5 5H191.46V4H186.5V5ZM196.42 5H201.38V4H196.42V5ZM206.34 5H211.3V4H206.34V5ZM216.26 5H221.22V4H216.26V5ZM226.18 5H231.14V4H226.18V5ZM236.1 5H241.06V4H236.1V5ZM246.02 5H248.5V4H246.02V5Z" fill="#9EA9C9"/>
</svg>
