<svg xmlns="http://www.w3.org/2000/svg" xmlns:xlink="http://www.w3.org/1999/xlink" width="770" height="146" viewBox="0 0 770 146">
  <defs>
    <filter id="Mask" x="-36" y="-16" width="862" height="238" filterUnits="userSpaceOnUse">
      <feOffset dx="10" dy="30" input="SourceAlpha"/>
      <feGaussianBlur stdDeviation="15" result="blur"/>
      <feFlood flood-color="#b1bcc7" flood-opacity="0.149"/>
      <feComposite operator="in" in2="blur"/>
      <feComposite in="SourceGraphic"/>
    </filter>
    <clipPath id="clip-path">
      <g transform="matrix(1, 0, 0, 1, 0, 0)" filter="url(#Mask)">
        <rect id="Mask-2" data-name="Mask" width="770" height="146" rx="20" fill="#fff" stroke="#e8edfc" stroke-miterlimit="10" stroke-width="1"/>
      </g>
    </clipPath>
  </defs>
  <g id="Group_3" data-name="Group 3" clip-path="url(#clip-path)">
    <path id="Line_2" data-name="Line 2" d="M.5.5v51" transform="translate(226 74)" fill="none" stroke="#000" stroke-linecap="round" stroke-miterlimit="10" stroke-width="1" stroke-dasharray="0 5"/>
    <path id="Line_2-2" data-name="Line 2" d="M.5.5v51" transform="translate(542 74)" fill="none" stroke="#000" stroke-linecap="round" stroke-miterlimit="10" stroke-width="1" stroke-dasharray="0 5"/>
    <text id="Thông_tin_dự_án" data-name="Thông tin dự án" transform="translate(20 42)" font-size="18" font-family="Quicksand-Bold, Quicksand" font-weight="700"><tspan x="0" y="0">Thông tin dự án</tspan></text>
    <text id="Khóa_học_liên_quan_B" data-name="Khóa học liên quan B" transform="translate(20 81)" fill="#0062da" font-size="12" font-family="SegoeUI, Segoe UI"><tspan fill="#000"><tspan x="0" y="0">Khóa học liên quan</tspan></tspan><tspan font-size="14"><tspan x="0" y="22">Bé làm Game</tspan></tspan></text>
    <text id="Học_phần_Học_phần_3" data-name="Học phần Học phần 3" transform="translate(322 81)" fill="#0062da" font-size="12" font-family="SegoeUI, Segoe UI"><tspan fill="#000"><tspan x="0" y="0">Học phần</tspan></tspan><tspan font-size="14"><tspan x="0" y="22" fill="#0062da">Học phần 3</tspan><tspan y="22" xml:space="preserve" fill="#000"> | </tspan><tspan y="22" fill="#0062da">Buổi 2</tspan></tspan></text>
    <g id="Group_2" data-name="Group 2" transform="translate(622 69)">
      <text id="Phần_mềm_làm_dự_án" data-name="Phần mềm làm dự án" transform="translate(0 13)" font-size="12" font-family="SegoeUI, Segoe UI"><tspan x="0" y="0">Phần mềm làm dự án</tspan></text>
      <g id="Group_6" data-name="Group 6" transform="translate(0 27)">
        <path id="codekitten" d="M54.347,14.371V3.783H56.9V14.371Zm-3.49-.019L47.833,10.2l-.41.858v3.12a.5.5,0,0,1-.019.175h-2.34V.059h2.359V7.566l2.828-3.744h2.594L49.062,8.7l4.212,5.656Zm37.166-.02V8.424a2.206,2.206,0,0,0-.779-1.785,3.1,3.1,0,0,0-3.8,0,2.2,2.2,0,0,0-.78,1.785v5.909H80.476V8.424A4.443,4.443,0,0,1,81.149,6a4.546,4.546,0,0,1,1.823-1.648,5.249,5.249,0,0,1,2.379-.566,5.133,5.133,0,0,1,2.4.576,4.855,4.855,0,0,1,1.813,1.608,4.537,4.537,0,0,1,.682,2.457l-.039,5.909ZM72.3,13.8a4.864,4.864,0,0,1-2.018-1.784,5.223,5.223,0,0,1-.936-2.984,5.3,5.3,0,0,1,.351-1.872,5.332,5.332,0,0,1,4.953-3.393,5.589,5.589,0,0,1,2.3.536,4.894,4.894,0,0,1,2.028,1.765,5.3,5.3,0,0,1,.916,2.984,5.835,5.835,0,0,1-.059.839l-.039-.02v.02l-8.073.214a3.083,3.083,0,0,0,.7,1.121,2.97,2.97,0,0,0,1.092.712,3.027,3.027,0,0,0,1.093.2,3.21,3.21,0,0,0,1.277-.264,2.884,2.884,0,0,0,1.043-.751l2.126.819a5.184,5.184,0,0,1-1.912,1.755,5.244,5.244,0,0,1-2.534.644A5.564,5.564,0,0,1,72.3,13.8Zm-36,0a4.866,4.866,0,0,1-2.019-1.784,5.23,5.23,0,0,1-.936-2.984A5.3,5.3,0,0,1,33.7,7.157a5.334,5.334,0,0,1,4.953-3.393,5.586,5.586,0,0,1,2.3.536,4.894,4.894,0,0,1,2.028,1.765,5.305,5.305,0,0,1,.917,2.984,5.966,5.966,0,0,1-.059.839l-.04-.02v.02l-8.073.214a3.107,3.107,0,0,0,.7,1.121,2.966,2.966,0,0,0,1.093.712,3.022,3.022,0,0,0,1.092.2,3.21,3.21,0,0,0,1.277-.264,2.877,2.877,0,0,0,1.043-.751l2.126.819a5.175,5.175,0,0,1-1.911,1.755,5.245,5.245,0,0,1-2.535.644A5.557,5.557,0,0,1,36.3,13.8Zm-11.467-.175a5.2,5.2,0,0,1-1.921-1.94,4.981,4.981,0,0,1-.721-2.633A5.152,5.152,0,0,1,22.9,6.405a5.346,5.346,0,0,1,1.94-1.939,5.153,5.153,0,0,1,2.632-.7,5.214,5.214,0,0,1,3.082.995V1.209L32.74.039,32.76,9.2a4.827,4.827,0,0,1-.712,2.554,5.308,5.308,0,0,1-1.94,1.872,5.22,5.22,0,0,1-2.632.7A5.153,5.153,0,0,1,24.833,13.621Zm-11.154,0a5.188,5.188,0,0,1-1.921-1.94,4.982,4.982,0,0,1-.722-2.633,5.147,5.147,0,0,1,.712-2.641,5.335,5.335,0,0,1,1.94-1.94,5.258,5.258,0,0,1,5.265.009A5.373,5.373,0,0,1,20.9,6.4a5.255,5.255,0,0,1,.7,2.651,5.15,5.15,0,0,1-.712,2.642,5.235,5.235,0,0,1-1.921,1.921,5.077,5.077,0,0,1-2.652.722A5.153,5.153,0,0,1,13.679,13.621Zm-11.037,0A5.188,5.188,0,0,1,.722,11.68,4.974,4.974,0,0,1,0,9.048,5.147,5.147,0,0,1,.712,6.406a5.335,5.335,0,0,1,1.94-1.94,5.148,5.148,0,0,1,2.632-.7,5.123,5.123,0,0,1,2.32.545,5.463,5.463,0,0,1,1.852,1.5,5.381,5.381,0,0,1,.995,2.145l-2.3-.02A3.053,3.053,0,0,0,5.285,5.967a2.96,2.96,0,0,0-1.531.419A3.087,3.087,0,0,0,2.633,7.508,2.831,2.831,0,0,0,2.2,9.048a2.969,2.969,0,0,0,.419,1.531A3.094,3.094,0,0,0,3.744,11.7a2.834,2.834,0,0,0,1.541.429,2.992,2.992,0,0,0,1.764-.556A3.028,3.028,0,0,0,8.17,10.14h2.281a5.3,5.3,0,0,1-2.827,3.646,5.078,5.078,0,0,1-2.34.546A5.15,5.15,0,0,1,2.642,13.621Zm61.22.673V.059h2.555V3.237h2.34l-.6,2.262H66.417v8.795Zm-5.869,0V.059h2.554V3.237h2.34l-.6,2.262H60.548v8.795ZM54.551,2.447a1.393,1.393,0,0,1-.418-1.023,1.37,1.37,0,0,1,.418-1,1.459,1.459,0,0,1,2.048,0,1.367,1.367,0,0,1,.419,1A1.391,1.391,0,0,1,56.6,2.447a1.459,1.459,0,0,1-2.048,0Z" transform="translate(37.752 8.898)"/>
        <g id="Group" transform="translate(0.375)">
          <path id="Path" d="M32.35,18.354c.207,1.165.8,2.3.76,2.681-.088.762-1.79-.146-1.79-.146s-.1.239.239.921c.252.508.474.879.369,1.151-.112.289-.607.348-1.183.281a1.24,1.24,0,0,0-1.194.487,3.508,3.508,0,0,0-.275.333h0a15.327,15.327,0,0,1-5.132,3.984c-2,.938-10.835,4.017-18.681-2.074a10.777,10.777,0,0,1-2.584-2.767,1.323,1.323,0,0,0-.516-.029c-.577.065-1.072.005-1.182-.286-.1-.272.085-.675.316-1.2a4.556,4.556,0,0,0,.287-.8c.006-.03-.018-.054-.042-.043-.3.149-1.658.789-1.734.11-.042-.377.56-1.514.771-2.679.346-1.9.617-3.237.79-4.044,0-.022.009-.044.015-.066s.009-.043.013-.063.01-.041.014-.061c.052-.235.11-.467.175-.7A23.14,23.14,0,0,1,3.04,10.015C2.26,8.662-1.029,2.645.767.361c1.026-1.3,8.036,1.3,9.57,1.893a14.47,14.47,0,0,1,5.7-1.392q.641-.027,1.256,0a.116.116,0,0,1,.031,0,12.777,12.777,0,0,1,3.8.821l.416.149a12.91,12.91,0,0,1,1.6.71c1.553-.542,8.822-3,9.8-1.661,1.715,2.333-1.739,8.208-2.575,9.561.2.442.382.878.541,1.319a13.642,13.642,0,0,1,.475,1.611s0,.009.006.029c.035.152.2.9.472,2.274C31.995,16.395,32.162,17.285,32.35,18.354Z" transform="translate(1.235 0.341)" fill="#fff"/>
          <path id="Rectangle" d="M.341,0h1.7a13.187,13.187,0,0,1,.341,2.33l-.179.924a1.138,1.138,0,0,1-1.014.837h0A1.138,1.138,0,0,1,.179,3.254L0,2.33A9.545,9.545,0,0,1,.341,0Z" transform="translate(16.364 1.364)"/>
          <path id="Rectangle-2" data-name="Rectangle" d="M.129,0h1.7a7.632,7.632,0,0,1,.341,1.748l-.128.5a1.2,1.2,0,0,1-1.065.825h0A1.046,1.046,0,0,1,.046,2.22L0,1.748A13.746,13.746,0,0,1,.129,0Z" transform="translate(19.303 1.705)"/>
          <path id="Rectangle-3" data-name="Rectangle" d="M-.129,0h-1.7a7.632,7.632,0,0,0-.341,1.748l.128.5a1.2,1.2,0,0,0,1.065.825h0A1.046,1.046,0,0,0-.046,2.22L0,1.748A13.746,13.746,0,0,0-.129,0Z" transform="translate(15.682 1.705)"/>
          <path id="Path-2" data-name="Path" d="M9.526,28.972a12.982,12.982,0,0,1-1.977-.818c-.318-.165-.632-.338-.938-.525s-.607-.384-.9-.591-.58-.426-.86-.656-.549-.476-.807-.734a7.087,7.087,0,0,1-1.515-1.971C1.957,22.364.722,17.757.722,17.757l.627-3.223-.006.027c.038-.195.09-.374.134-.562l.069-.279.077-.273q.16-.545.354-1.077c.256-.709.549-1.4.852-2.077l.017.346Q2.207,9.516,1.66,8.348a24.479,24.479,0,0,1-.983-2.4A12.7,12.7,0,0,1,.051,3.4,5.847,5.847,0,0,1,.031,2.034,3.085,3.085,0,0,1,.5.67L.6.515C.625.486.658.451.686.42S.747.364.779.337A1.331,1.331,0,0,1,1.168.13,2.613,2.613,0,0,1,1.9,0,7.217,7.217,0,0,1,3.231.094,21.2,21.2,0,0,1,5.75.657C7.395,1.12,9,1.679,10.589,2.292l-.3.012a14.6,14.6,0,0,1,1.7-.691,15.033,15.033,0,0,1,1.773-.467A15.658,15.658,0,0,1,15.577.9a15.327,15.327,0,0,1,1.83-.035l-.065,0a.614.614,0,0,1,.139,0l-.045,0A10.327,10.327,0,0,1,19,1.05a14.149,14.149,0,0,1,1.512.389c.247.077.491.158.734.244s.478.169.726.265A13.359,13.359,0,0,1,23.4,2.6l-.3-.022c1.62-.565,3.254-1.08,4.923-1.5A22.969,22.969,0,0,1,30.569.569,8.016,8.016,0,0,1,31.907.495a3.044,3.044,0,0,1,.72.109,1.516,1.516,0,0,1,.386.169A1.144,1.144,0,0,1,33.2.922a1.027,1.027,0,0,1,.086.1.351.351,0,0,1,.032.044l.026.04a3.026,3.026,0,0,1,.475,1.379,5.6,5.6,0,0,1-.04,1.378,12.27,12.27,0,0,1-.7,2.56,24.288,24.288,0,0,1-1.063,2.386q-.589,1.162-1.267,2.272l.022-.359a15.583,15.583,0,0,1,1.038,3.02l.006.032.5,2.418s-1.617,4.925-2.269,7.563a6.135,6.135,0,0,1-.477,1.049,2.114,2.114,0,0,1-.476.662c-.1.1-.191.2-.289.3s-.2.2-.3.293q-.3.291-.624.561c-.213.182-.431.357-.657.522s-.454.327-.691.475-.477.291-.723.422a9.272,9.272,0,0,1-1.531.655.127.127,0,0,1-.159-.084.129.129,0,0,1,.052-.146c.458-.3.906-.6,1.34-.912q.325-.237.641-.483c.209-.166.417-.333.62-.506s.4-.35.6-.53.387-.366.577-.554.325-.312.558-.575a3.421,3.421,0,0,0,.441-1.061c.143-.578,2.628-7.51,2.628-7.51l-.5-2.458.006.032a14.818,14.818,0,0,0-.989-2.873l-.084-.185.106-.174c.44-.721.854-1.463,1.236-2.217a23.525,23.525,0,0,0,1.03-2.311,11.516,11.516,0,0,0,.657-2.4,4.84,4.84,0,0,0,.038-1.189,2.27,2.27,0,0,0-.346-1.031c-.077-.182-.47-.265-.852-.281a7.331,7.331,0,0,0-1.21.069,22.25,22.25,0,0,0-2.462.49c-1.636.412-3.257.923-4.856,1.481l-.155.054-.145-.077A12.56,12.56,0,0,0,21.7,2.657c-.225-.087-.469-.173-.7-.256s-.472-.162-.709-.235A13.394,13.394,0,0,0,18.859,1.8a9.6,9.6,0,0,0-1.451-.171l-.046,0a.189.189,0,0,0,.077,0l-.065,0a14.579,14.579,0,0,0-1.74.034,14.89,14.89,0,0,0-1.726.233,14.3,14.3,0,0,0-1.682.443,13.826,13.826,0,0,0-1.611.654l-.147.071L10.317,3C8.751,2.4,7.158,1.844,5.549,1.391A20.546,20.546,0,0,0,3.123.847,6.522,6.522,0,0,0,1.933.765a1.889,1.889,0,0,0-.516.085.6.6,0,0,0-.17.086c-.008.008-.018.015-.026.023S1.209.97,1.2.983l-.072.108A2.322,2.322,0,0,0,.782,2.122,5.1,5.1,0,0,0,.8,3.307a11.973,11.973,0,0,0,.591,2.4,23.691,23.691,0,0,0,.952,2.322c.356.76.743,1.509,1.158,2.236l.1.169-.079.177c-.3.67-.584,1.343-.831,2.026q-.186.512-.339,1.031l-.074.261-.065.26c-.041.172-.091.349-.125.517l-.006.027L1.465,17.9A54.578,54.578,0,0,1,3.63,23.162,4.348,4.348,0,0,0,4.6,25.1a7.218,7.218,0,0,0,.74.709c.255.229.521.447.794.661s.546.425.829.624.567.4.86.585c.582.38,1.185.729,1.8,1.063a.127.127,0,0,1-.1.233Z" transform="translate(1.136)"/>
          <g id="Group-2" data-name="Group" transform="translate(4.985 3.068)">
            <path id="Path-3" data-name="Path" d="M3.138,2.1A14.882,14.882,0,0,0,1.415,4.586,11.479,11.479,0,0,1,0,.032C0,.021,0,.01,0,0A6.6,6.6,0,0,1,2.06.9C2.437,1.347,3.691,1.686,3.138,2.1Z" transform="translate(0.077 0.074)" fill="#fc7e81"/>
            <path id="Shape" d="M1.429,4.687A11.546,11.546,0,0,1,.008.109L0,0,.071.023A6.614,6.614,0,0,1,2.155.938a2.512,2.512,0,0,0,.6.432c.333.2.62.368.63.578a.32.32,0,0,1-.159.265A13.648,13.648,0,0,0,1.516,4.687l-.042.069Z" transform="translate(0.02 0.001)" fill="#390075"/>
          </g>
          <path id="Path-4" data-name="Path" d="M2.522,5.5A14.518,14.518,0,0,1,4.529,2.732a.888.888,0,0,0-.223-1.392A13.986,13.986,0,0,0,.934.025.734.734,0,0,0,0,.709,8.6,8.6,0,0,0,.689,4.041a8.017,8.017,0,0,0,.835,1.512A.6.6,0,0,0,2.522,5.5Z" transform="translate(3.621 2.727)" fill="#f9f154"/>
          <path id="Shape-2" data-name="Shape" d="M1.84,6.626c-.023-.022-.048-.042-.069-.065l-.06-.073-.084-.113c-.054-.075-.105-.151-.156-.228-.1-.153-.2-.309-.284-.469a10.542,10.542,0,0,1-.477-.984,9.437,9.437,0,0,1-.36-1.042A9.755,9.755,0,0,1,.007,1.472C0,1.379,0,1.286,0,1.194V1.081l0-.053A1.059,1.059,0,0,1,.039.816,1.107,1.107,0,0,1,.543.15,1.077,1.077,0,0,1,1.361.034c.178.049.346.1.518.153a13.11,13.11,0,0,1,1.994.8,10.072,10.072,0,0,1,.941.54c.033.02.091.062.137.1a1.545,1.545,0,0,1,.134.121,1.354,1.354,0,0,1,.211.293,1.324,1.324,0,0,1,.158.693,1.3,1.3,0,0,1-.218.669,1.325,1.325,0,0,1-.106.139c-.034.04-.059.066-.089.1l-.17.193c-.228.257-.445.525-.653.8a17,17,0,0,0-1.15,1.736h0A.78.78,0,0,1,2.53,6.8a.761.761,0,0,1-.166.018A.815.815,0,0,1,1.84,6.626Z" transform="translate(3.28 2.386)"/>
          <path id="Path-5" data-name="Path" d="M1.994,5.436A14.757,14.757,0,0,0,.218,2.71.936.936,0,0,1,.482,1.292,13.4,13.4,0,0,1,3.959.016a.663.663,0,0,1,.81.621A7.464,7.464,0,0,1,3.691,4.605c-.212.367-.408.669-.579.914A.654.654,0,0,1,1.994,5.436Z" transform="translate(27.485 3.068)" fill="#f9f154"/>
          <path id="Shape-3" data-name="Shape" d="M2.766,6.757a.9.9,0,0,1-.5-.478l0,0A17.358,17.358,0,0,0,1.112,4.49C.9,4.206.68,3.929.45,3.663l-.086-.1L.32,3.513l-.055-.07A1.386,1.386,0,0,1,.09,3.129,1.343,1.343,0,0,1,.331,1.76,1.345,1.345,0,0,1,.61,1.519C.666,1.48.7,1.462.743,1.437l.121-.07a10.551,10.551,0,0,1,1-.5A13.9,13.9,0,0,1,3.961.14L4.23.072A2.811,2.811,0,0,1,4.553.005a1.14,1.14,0,0,1,.82.248A1.124,1.124,0,0,1,5.785,1c0,.034.007.077.008.1v.072c0,.049,0,.1,0,.145,0,.1,0,.192-.008.288a7.012,7.012,0,0,1-.15,1.133,7.685,7.685,0,0,1-.312,1.092A9.7,9.7,0,0,1,4.868,4.87c-.089.166-.18.328-.278.488s-.2.313-.3.468-.211.3-.32.452l-.084.111-.042.056-.061.071a.907.907,0,0,1-.3.222.92.92,0,0,1-.38.081A.95.95,0,0,1,2.766,6.757Z" transform="translate(27.144 2.386)"/>
          <g id="Group_5" data-name="Group 5" transform="translate(14.53 20.795)">
            <path id="Path-6" data-name="Path" d="M3.409.6c-.011.3-.523.658-.991.923a1.435,1.435,0,0,1-1.5-.052C.474,1.17-.011.778,0,.477.02-.08.779-.011,1.72.022S3.429.04,3.409.6Z" transform="translate(1.023)"/>
            <path id="Path-7" data-name="Path" d="M5.162.375a1.032,1.032,0,0,1,.18.27,1.169,1.169,0,0,1,0,1.007,1.231,1.231,0,0,1-.532.555,1.483,1.483,0,0,1-.771.172,1.634,1.634,0,0,1-.743-.218,1.206,1.206,0,0,1-.162-.107,1.186,1.186,0,0,1-.147-.126l-.068-.068c-.021-.023-.039-.046-.058-.069a1.406,1.406,0,0,1-.108-.143,2.137,2.137,0,0,1-.292-.626,2.266,2.266,0,0,1-.07-.329C2.377.639,2.371.583,2.367.526c0-.028,0-.057,0-.086s0-.055,0-.1L2.379,0l.36,0h0L3.1,0l.018.34c0,.045,0,.068,0,.1s0,.058,0,.086c0,.057-.007.113-.015.169a2.176,2.176,0,0,1-.067.331,2.05,2.05,0,0,1-.291.63,1.425,1.425,0,0,1-.109.143c-.02.023-.038.046-.059.069l-.07.068a1.184,1.184,0,0,1-.149.125,1.288,1.288,0,0,1-.163.107,1.68,1.68,0,0,1-.746.216A1.5,1.5,0,0,1,.67,2.217a1.244,1.244,0,0,1-.549-.552,1.169,1.169,0,0,1-.111-.35,1.208,1.208,0,0,1,0-.352A1.106,1.106,0,0,1,.122.643.939.939,0,0,1,.317.376a.067.067,0,0,1,.092,0A.06.06,0,0,1,.429.419V.428A1.871,1.871,0,0,0,.5.952a1.036,1.036,0,0,0,.211.384.776.776,0,0,0,.3.222.843.843,0,0,0,.379.05,1,1,0,0,0,.382-.116.95.95,0,0,0,.305-.267,1.311,1.311,0,0,0,.209-.4A1.466,1.466,0,0,0,2.347.6,1.137,1.137,0,0,0,2.362.483l0-.056V.384L2.74.722h0L3.113.384V.427l0,.056c0,.038.006.077.011.116a1.407,1.407,0,0,0,.052.228,1.236,1.236,0,0,0,.209.4A.937.937,0,0,0,3.7,1.5a1.054,1.054,0,0,0,.386.114.8.8,0,0,0,.7-.264.9.9,0,0,0,.127-.177A1.359,1.359,0,0,0,5,.952,1.687,1.687,0,0,0,5.05.428V.42A.063.063,0,0,1,5.11.355.065.065,0,0,1,5.162.375Z" transform="translate(0 1.023)"/>
          </g>
          <g id="Group-3" data-name="Group" transform="translate(9.076 15.341)">
            <path id="Path-8" data-name="Path" d="M5.368,2.544a.421.421,0,0,1-.124-.019l-.317-.1L.265.759a.388.388,0,0,1-.24-.5A.411.411,0,0,1,.548.024L5.2,1.69l.29.089a.389.389,0,0,1,.264.492A.405.405,0,0,1,5.368,2.544Z" transform="translate(0.018 0.012)"/>
            <path id="Path-9" data-name="Path" d="M.009,2.646c.113,1.586,1.26,2.647,2.562,2.371A3.156,3.156,0,0,0,4.724,1.647q-.011-.152-.034-.3L.921,0A3.533,3.533,0,0,0,.009,2.646Z" transform="translate(0.256 0.725)"/>
            <g id="Group-4" data-name="Group" transform="translate(1.116 1.407)">
              <path id="Oval" d="M.936,1.157c.515,0,.931-.253.929-.572S1.444,0,.929,0,0,.253,0,.572.421,1.153.936,1.157Z" transform="translate(0.015 1.843) rotate(-79.216)" fill="#fff"/>
              <path id="Oval-2" data-name="Oval" d="M.5.789C.759.79.967.662.966.5S.756.212.5.211.033.338.034.5.244.788.5.789Z" transform="matrix(0.126, -0.992, 0.992, 0.126, 1.732, 3.014)" fill="#fff"/>
            </g>
          </g>
          <g id="Group-5" data-name="Group" transform="translate(20.666 15.341)">
            <path id="Path-10" data-name="Path" d="M.406,2.544a.405.405,0,0,1-.387-.273.389.389,0,0,1,.264-.492l.29-.089L5.226.024a.411.411,0,0,1,.522.231.388.388,0,0,1-.24.5L.829,2.434l-.3.092A.422.422,0,0,1,.406,2.544Z" transform="translate(0 0.012)"/>
            <path id="Path-11" data-name="Path" d="M4.724,2.646c-.113,1.586-1.26,2.647-2.562,2.371A3.156,3.156,0,0,1,.009,1.647q.011-.152.034-.3L3.812,0A3.534,3.534,0,0,1,4.724,2.646Z" transform="translate(0.803 0.725)"/>
            <g id="Group-6" data-name="Group" transform="translate(2.018 1.407)">
              <path id="Oval-3" data-name="Oval" d="M.585,1.865c.319,0,.576-.414.572-.929S.891,0,.572,0,0,.414,0,.929.265,1.863.585,1.865Z" transform="translate(1.157 0.224) rotate(-10.784)" fill="#fff"/>
              <path id="Oval-4" data-name="Oval" d="M.5.966C.662.967.79.759.789.5S.658.035.5.034.21.241.211.5.342.965.5.966Z" transform="matrix(0.992, -0.126, 0.126, 0.992, -0.193, 2.146)" fill="#fff"/>
            </g>
          </g>
          <g id="Group_4" data-name="Group 4" transform="translate(0.112 11.193)">
            <path id="Path-12" data-name="Path" d="M29.323,12.795c-.258.05-.521.407-.782.436a3.957,3.957,0,0,1-.456.028c-.163,0-.326.015-.489.027-.122.009-.244,0-.366,0-.241.008-.484.009-.725,0-.326-.015-.652-.037-.977-.069-.192-.019-.382-.064-.577-.065a4.807,4.807,0,0,0-.5-.092c-.178-.039-.358-.065-.533-.121-.1-.034-.213-.063-.319-.089a3.3,3.3,0,0,1-.431-.149,3.4,3.4,0,0,1-.48-.206c-.107-.062-.222-.111-.333-.168a6.566,6.566,0,0,1-.722-.46,3.012,3.012,0,0,1-.408-.354c-.056-.071-.128-.129-.182-.2a6.357,6.357,0,0,1-.735-1.17c-.491-.85-.855-1.762-1.27-2.649-.086-.184-.175-.366-.262-.55-.033-.071-.071-.14-.1-.211a1.014,1.014,0,0,0-.314-.541,1.308,1.308,0,0,0-.307-.205.55.55,0,0,0-.165-.047,2.8,2.8,0,0,0-.72-.1,3.13,3.13,0,0,0-.338-.016c-.141-.007-.281.008-.422.009a2.869,2.869,0,0,0-.695.1.587.587,0,0,0-.359.157,1.078,1.078,0,0,0-.4.6c-.134.275-.271.548-.408.821-.113.226-.214.457-.33.681l-.36.744a20.78,20.78,0,0,1-1.034,1.843,3.352,3.352,0,0,1-.785.846,5.332,5.332,0,0,1-.663.431,4.336,4.336,0,0,1-.438.219c-.132.057-.266.11-.4.162a3.6,3.6,0,0,1-.489.158c-.121.029-.239.066-.362.092-.187.04-.373.076-.562.106-.216.034-.434.061-.651.076-.149.01-.3.019-.446.037-.266.032-.531.007-.8.028a2.065,2.065,0,0,1-.407-.011c-.138-.017-.277-.016-.415-.022-.26-.012-.52-.033-.779-.06-.148-.015-.3-.033-.445-.053s-.284-.046-.425-.069a2.666,2.666,0,0,1-.485-.107c-.1-.038-.214-.056-.32-.086-.142-.04-.278-.093-.416-.141a1.828,1.828,0,0,1-.4-.173A2.867,2.867,0,0,0,1.9,11.8c-.232-.028-.466-.031-.7-.042a3.024,3.024,0,0,0-.429.053A.582.582,0,0,1,.5,11.79c-.043-.016-.05-.034-.029-.073s.049-.1.073-.15A.34.34,0,0,1,.6,11.5a1.338,1.338,0,0,1,.117-.151.984.984,0,0,0,.16-.253,5.349,5.349,0,0,0,.309-.711.816.816,0,0,0-.126-.754.22.22,0,0,0-.106-.077,1.054,1.054,0,0,0-.392-.067c-.117,0-.233,0-.35,0a.2.2,0,0,1-.2-.1.2.2,0,0,1,.058-.22c.047-.055.1-.107.15-.157a1.377,1.377,0,0,0,.21-.386c.1-.2.2-.394.306-.592a5.611,5.611,0,0,0,.36-.878,3.176,3.176,0,0,0,.142-.693c.009-.1.012-.205.019-.307.022-.332.047-.664.08-1,.027-.282.065-.563.093-.844.019-.19.06-.378.084-.568.047-.375.147-.741.182-1.118a.2.2,0,0,0,.013-.036,3.842,3.842,0,0,1,.316-1.33A1.726,1.726,0,0,1,2.346.827,1.8,1.8,0,0,1,2.674.5a1.512,1.512,0,0,1,.59-.315c.1-.03.19-.062.283-.1A1.358,1.358,0,0,1,4.062.009c.75,0,1.5,0,2.251,0,.23,0,.459,0,.689,0,.124,0,.249-.01.372,0A2.059,2.059,0,0,1,7.738,0c.126-.006.254,0,.38,0a3.385,3.385,0,0,1,.356,0,1.55,1.55,0,0,0,.265,0c.19-.006.381,0,.571,0a2.992,2.992,0,0,1,.331,0,3.061,3.061,0,0,0,.339,0c.1,0,.2,0,.307,0,.141,0,.282-.005.422,0,.119,0,.238,0,.356,0,.169,0,.338,0,.507,0h1.075l1.268,0h1.318c.417,0,.834,0,1.251,0,.345,0,.689,0,1.034,0l1.293,0H20.1l1.318,0c.364,0,.728,0,1.092,0,.2,0,.41-.015.615-.007.111,0,.221,0,.332,0s.249,0,.373,0h.315c.146,0,.293,0,.439,0,.113,0,.226-.006.34,0s.238,0,.357,0a.172.172,0,0,1,.114,0,.064.064,0,0,0,.041.006c.121-.037.246.026.368-.015.042-.014.082.024.122.014.122-.028.246.021.368-.014a.132.132,0,0,1,.082.006.182.182,0,0,0,.122,0,.215.215,0,0,1,.131,0,.188.188,0,0,0,.114,0c.011,0,.021-.011.032-.009.125.026.253-.017.378.012C27.2.03,27.24,0,27.283.008a2.34,2.34,0,0,0,.363,0c.118,0,.238,0,.357,0s.255-.007.382,0c.108.007.216,0,.324,0,.241,0,.482,0,.723,0,.222,0,.444,0,.666,0a2.541,2.541,0,0,1,.845.111,1.451,1.451,0,0,1,.309.145c.124.079.257.141.376.231a1.7,1.7,0,0,1,.289.263c.09.11.186.214.28.32a.522.522,0,0,1,.138.186,1.377,1.377,0,0,1,.156.357,2.715,2.715,0,0,1,.181.748c.018.207.026.415.052.62s.038.4.047.594a.219.219,0,0,0,.012.048,5.671,5.671,0,0,1,.054.631c.021.288.038.576.062.864.029.339.059.678.118,1.014.025.141.049.283.079.424a8.125,8.125,0,0,0,.187.828,5.5,5.5,0,0,0,.355.915c.087.177.186.348.274.524s.186.316.276.475a1.183,1.183,0,0,1,.109.221.229.229,0,0,1-.109.246c-.063.039-.066-.026-.141-.026a3.239,3.239,0,0,0-.508.026c-.336.059-.511.136-.443.475a3.269,3.269,0,0,0,.409,1.288c.031.05.053.1.083.154.039.066.009.085-.048.1a.718.718,0,0,1-.347,0,1.64,1.64,0,0,0-.728.01,3.626,3.626,0,0,0-.779.175,2.923,2.923,0,0,0-.463.226,4.177,4.177,0,0,1-.453.206c-.159.064-.321.12-.484.172a5.4,5.4,0,0,1-.539.135C29.6,12.743,29.465,12.776,29.323,12.795Z" transform="translate(0.441 0.398)" fill="#1cc3a5"/>
            <path id="Path-13" data-name="Path" d="M26.631,13.628c-.351-.016-.675-.039-.986-.069l-.09-.011-.221-.032-.074-.009L25.2,13.5l-.028,0-.052,0h-.063L25,13.477l-.044-.011-.049-.011-.063-.01-.191-.027-.053-.009-.309-.062-.087-.019-.074-.017-.067-.018-.137-.041c-.072-.022-.148-.042-.231-.062l-.039-.01c-.063-.016-.122-.035-.194-.06l-.092-.033L23,12.942l-.089-.037a1.6,1.6,0,0,1-.184-.093l-.018-.01-.059-.032-.244-.118-.076-.04-.074-.041-.074-.044-.078-.048-.131-.085-.157-.106-.2-.14a3.389,3.389,0,0,1-.392-.345l-.019-.021-.026-.031-.089-.093-.033-.036L21.03,11.6a2.625,2.625,0,0,1-.224-.277l-.06-.089-.061-.1-.032-.053-.067-.115-.073-.13-.2-.361-.122-.212c-.013-.022-.024-.044-.037-.067l-.075-.136-.073-.139-.074-.144-.076-.15-.077-.159-.122-.258-.131-.285-.382-.842-.151-.328-.269-.56-.067-.134L18.628,7l-.01-.027a.765.765,0,0,0-.241-.428l-.04-.033a.942.942,0,0,0-.213-.137.336.336,0,0,0-.094-.027l-.034-.006a2.574,2.574,0,0,0-.657-.094l-.034,0a1.075,1.075,0,0,0-.156-.01l-.113,0-.065,0h-.048l-.086,0-.185.007h-.062a2.7,2.7,0,0,0-.635.089l-.031.008H15.89c-.055,0-.11.027-.213.107a.834.834,0,0,0-.318.465l-.016.044-.036.073-.411.822-.149.311-.069.144-.07.139-.359.738c-.188.384-.4.77-.644,1.189l-.152.256c-.026.044-.053.087-.08.131l-.167.271a3.551,3.551,0,0,1-.835.9l-.087.067c-.044.032-.089.064-.137.1l-.1.065-.108.068-.122.072-.137.079a4.751,4.751,0,0,1-.46.229l-.172.072-.334.13a3.835,3.835,0,0,1-.419.129l-.046.011L10.01,13l-.078.018c-.2.043-.391.078-.572.107-.233.037-.455.063-.669.077l-.3.023-.087.009-.076.009-.071.006-.036,0-.076,0-.087,0-.328,0-.09,0-.171.01A2.287,2.287,0,0,1,7,13.259l-.039,0-.085-.006-.207-.007-.218-.011q-.308-.019-.635-.052l-.068-.007-.143-.016-.266-.033-.086-.013-.517-.086a1.911,1.911,0,0,1-.325-.084l-.018-.006-.039-.013-.049-.013-.13-.031-.066-.017-.085-.025L3.931,12.8l-.365-.128a1.536,1.536,0,0,1-.328-.155l-.068-.041a2.675,2.675,0,0,0-1.065-.328l-.039,0-.077-.007-.083-.006-.094-.005-.407-.018a.518.518,0,0,0-.069.005l-.059.009-.1.017-.08.014-.045.005-.075.007a.685.685,0,0,1-.324-.037.269.269,0,0,1-.151-.4l.023-.044.05-.106a.587.587,0,0,1,.085-.114l-.021.023.015-.023c.014-.021.031-.041.051-.067L.8,11.3a.828.828,0,0,0,.1-.168l.1-.2.067-.139L1.1,10.71l.031-.069.025-.064.022-.062.02-.061A.572.572,0,0,0,1.1,9.913l0,0-.061-.021A.823.823,0,0,0,.8,9.863H.772l-.323,0a.422.422,0,0,1-.408-.233.4.4,0,0,1,.092-.468A2.343,2.343,0,0,1,.3,8.994l.01-.011a.3.3,0,0,0,.049-.077l.023-.053.051-.12.022-.043.057-.106L.756,8.1l.076-.154a5.31,5.31,0,0,0,.278-.7,2.944,2.944,0,0,0,.131-.635c0-.006,0-.014,0-.02l.026-.417L1.3,5.794c0-.04.006-.081.01-.122l.021-.236.018-.182.057-.5.033-.3.008-.068.018-.117.045-.277.014-.107.015-.105.019-.115.1-.519.02-.119.014-.105.008-.067L1.7,2.774l.012-.024.007-.078A3.9,3.9,0,0,1,2.01,1.466l.037-.081A1.879,1.879,0,0,1,2.4.892L2.429.864l.1-.11A1.045,1.045,0,0,1,2.76.538L2.791.51a1.672,1.672,0,0,1,.551-.3L3.417.191l.1-.034.086-.03L3.681.1l.04-.015A1.3,1.3,0,0,1,4.162.011l.12,0,.568,0H7.085l.162,0,.217,0,.061,0,.046,0,.024,0A.925.925,0,0,1,7.743,0l.143.005h.048c.06,0,.121,0,.185,0l.138,0,.076,0h.049l.172,0a1.113,1.113,0,0,1,.159.01l.017,0a.476.476,0,0,0,.065,0L8.982.008H9.4l.274,0h.058l.079,0L9.9.013h.068L10.2.005h.287l.2,0h.143l.168,0h.2l.17,0,.228,0h1.242l1.264,0h1.311l1.171,0,1.106,0,5.006,0,.361-.008h.133l.1,0,.079,0,.157,0h.034l.134.005h.055l.212,0h.293l.329,0,.107,0h.347l.12.006H25.4l.032-.005a.418.418,0,0,1,.116,0l.029.006.029,0a.747.747,0,0,1,.135,0l.1.009h.019l.011,0L25.9.012a.327.327,0,0,1,.114,0l.023,0,.025.006.016,0a.732.732,0,0,1,.136,0l.043,0,.069,0a.177.177,0,0,0,.049-.005.369.369,0,0,1,.2.007L26.6.015a.451.451,0,0,1,.2,0l.021.006.019-.006a.253.253,0,0,1,.087-.008l.043.006.03,0h.02l.1-.005a.818.818,0,0,1,.159,0l.027,0,.025-.005a.293.293,0,0,1,.054-.006h.031l.019,0,.053.006.037,0h.049l.1,0,.071,0h.085l.588,0,.077,0,.078,0h.045l.165,0h.943l.456,0h.132a2.542,2.542,0,0,1,.824.122A1.671,1.671,0,0,1,31.5.3l.034.021.184.105.065.04L31.835.5l.052.039a1.839,1.839,0,0,1,.327.3L32.266.9l.207.233.006.005a.6.6,0,0,1,.138.17l.022.039.06.109.044.086a1.057,1.057,0,0,1,.072.176l.014.054.031.079a2.916,2.916,0,0,1,.147.606l.012.1,0,.05.023.321.013.142.023.2c.016.15.027.306.033.473l.011.038.014.079.011.08c0,.028.005.057.008.088l.007.1.013.217.026.388.035.481.033.378.026.253.013.112.014.105.015.1c.005.034.012.068.017.1l.049.272.03.148a7.669,7.669,0,0,0,.18.8,5.281,5.281,0,0,0,.339.868l.036.071.181.339.056.108.038.072.047.082.13.212.055.1.013.021.018.023.027.032.05.059a.692.692,0,0,1,.129.2.31.31,0,0,1-.139.434.6.6,0,0,1-.326.086H34.2l-.19-.005h-.066l-.055,0-.024,0-.047.007c-.208.036-.268.122-.226.328a4,4,0,0,0,.56,1.346l.025.042.028.053.013.027.034.062a.268.268,0,0,1-.007.284.29.29,0,0,1-.191.129.9.9,0,0,1-.457,0l-.082-.015a1.739,1.739,0,0,0-.3-.019l-.1,0c-.052,0-.109.006-.171.011l-.131.012-.211.022a3.427,3.427,0,0,0-.727.163l-.056.021-.029.011-.059.028-.033.015-.074.039-.176.1a4.444,4.444,0,0,1-.473.214c-.151.06-.31.116-.5.176a5.42,5.42,0,0,1-.557.139l-.272.057-.1.017-.057.008-.085.015-.085.014-.092.013-.1.012-.553.057c-.121.011-.241.016-.364.016-.054,0-.111,0-.175.005h-.023l-.238.017-.085.005-.054,0-.208,0-.214.005-.21,0C26.88,13.636,26.754,13.634,26.631,13.628ZM26.593.028Z" transform="translate(0.1 0.057)"/>
            <path id="Combined_Shape" data-name="Combined Shape" d="M6.58,3.409H1.7A1.7,1.7,0,0,1,1.7,0H6.58a1.7,1.7,0,0,1,0,3.409ZM4.09,1.193a.682.682,0,1,0,.682.681A.682.682,0,0,0,4.09,1.193Z" transform="translate(0.682 2.727)" fill="#f9f154"/>
            <path id="Combined_Shape-2" data-name="Combined Shape" d="M.821,3.75A.858.858,0,0,1,0,2.906l0-.059V.9A.872.872,0,0,1,.767,0L.821,0H7.7a.859.859,0,0,1,.82.844l0,.059V2.847a.872.872,0,0,1-.767.9l-.055,0Z" transform="translate(0.682 2.727)"/>
          </g>
        </g>
      </g>
    </g>
  </g>
</svg>
